<?xml version="1.0" encoding="UTF-8"?>
<svg version="1.1" xmlns="http://www.w3.org/2000/svg" width="500" height="500">
<path d="M0 0 C165 0 330 0 500 0 C500 165 500 330 500 500 C335 500 170 500 0 500 C0 335 0 170 0 0 Z " fill="#011C2F" transform="translate(0,0)"/>
<path d="M0 0 C54.12 0 108.24 0 164 0 C164 53.79 164 107.58 164 163 C109.88 163 55.76 163 0 163 C0 109.21 0 55.42 0 0 Z " fill="#001B2E" transform="translate(332,333)"/>
<path d="M0 0 C54.12 0 108.24 0 164 0 C164 53.46 164 106.92 164 162 C109.88 162 55.76 162 0 162 C0 108.54 0 55.08 0 0 Z " fill="#021D2F" transform="translate(332,167)"/>
<path d="M0 0 C52.8 0 105.6 0 160 0 C160 53.79 160 107.58 160 163 C107.2 163 54.4 163 0 163 C0 109.21 0 55.42 0 0 Z " fill="#001B2E" transform="translate(168,333)"/>
<path d="M0 0 C52.8 0 105.6 0 160 0 C160 53.79 160 107.58 160 163 C107.2 163 54.4 163 0 163 C0 109.21 0 55.42 0 0 Z " fill="#001B2E" transform="translate(4,333)"/>
<path d="M0 0 C54.12 0 108.24 0 164 0 C164 52.47 164 104.94 164 159 C109.88 159 55.76 159 0 159 C0 106.53 0 54.06 0 0 Z " fill="#001B2E" transform="translate(332,4)"/>
<path d="M0 0 C52.8 0 105.6 0 160 0 C160 53.46 160 106.92 160 162 C107.2 162 54.4 162 0 162 C0 108.54 0 55.08 0 0 Z " fill="#011B2E" transform="translate(4,167)"/>
<path d="M0 0 C52.8 0 105.6 0 160 0 C160 52.47 160 104.94 160 159 C107.2 159 54.4 159 0 159 C0 106.53 0 54.06 0 0 Z " fill="#001B2E" transform="translate(168,4)"/>
<path d="M0 0 C52.8 0 105.6 0 160 0 C160 52.47 160 104.94 160 159 C107.2 159 54.4 159 0 159 C0 106.53 0 54.06 0 0 Z " fill="#001B2E" transform="translate(4,4)"/>
<path d="M0 0 C165 0 330 0 500 0 C500 165 500 330 500 500 C335 500 170 500 0 500 C0 335 0 170 0 0 Z M4 4 C4 56.47 4 108.94 4 163 C56.8 163 109.6 163 164 163 C164 110.53 164 58.06 164 4 C111.2 4 58.4 4 4 4 Z M168 4 C168 56.47 168 108.94 168 163 C220.8 163 273.6 163 328 163 C328 110.53 328 58.06 328 4 C275.2 4 222.4 4 168 4 Z M332 4 C332 56.47 332 108.94 332 163 C386.12 163 440.24 163 496 163 C496 110.53 496 58.06 496 4 C441.88 4 387.76 4 332 4 Z M4 167 C4 220.46 4 273.92 4 329 C56.8 329 109.6 329 164 329 C164 275.54 164 222.08 164 167 C111.2 167 58.4 167 4 167 Z M168 167 C168 220.46 168 273.92 168 329 C220.8 329 273.6 329 328 329 C328 275.54 328 222.08 328 167 C275.2 167 222.4 167 168 167 Z M332 167 C332 220.46 332 273.92 332 329 C386.12 329 440.24 329 496 329 C496 275.54 496 222.08 496 167 C441.88 167 387.76 167 332 167 Z M4 333 C4 386.79 4 440.58 4 496 C56.8 496 109.6 496 164 496 C164 442.21 164 388.42 164 333 C111.2 333 58.4 333 4 333 Z M168 333 C168 386.79 168 440.58 168 496 C220.8 496 273.6 496 328 496 C328 442.21 328 388.42 328 333 C275.2 333 222.4 333 168 333 Z M332 333 C332 386.79 332 440.58 332 496 C386.12 496 440.24 496 496 496 C496 442.21 496 388.42 496 333 C441.88 333 387.76 333 332 333 Z " fill="#FAF8E9" transform="translate(0,0)"/>
<path d="M0 0 C52.8 0 105.6 0 160 0 C160 53.46 160 106.92 160 162 C107.2 162 54.4 162 0 162 C0 108.54 0 55.08 0 0 Z M31 36 C16.0813991 53.50205242 13.33690142 71.70152868 15 94 C17.25006135 108.70210541 26.43247564 123.23265585 38.01171875 132.37890625 C44.56174743 137.18625773 51.37867253 141.13357153 59 144 C59.81210937 144.31839844 60.62421875 144.63679687 61.4609375 144.96484375 C77.2733347 150.24375174 94.56617469 147.3853955 109.1875 140.25 C126.51822054 131.37378398 137.4263335 118.38490018 143.875 100 C148.88866439 84.26090165 146.48700664 66.13464226 139.75390625 51.38671875 C130.75847791 34.01692728 116.37024691 23.26809216 98.19921875 16.98046875 C73.91775527 9.53889691 48.54152417 18.40940863 31 36 Z " fill="#001B2E" transform="translate(4,167)"/>
<path d="M0 0 C3.62733938 2.74935267 6.83161512 5.73777794 10 9 C11.07894531 10.06541016 11.07894531 10.06541016 12.1796875 11.15234375 C23.93958902 23.42258062 27.61177334 38.23098188 27.55078125 54.7331543 C27.19668958 69.18562722 22.58478482 81.09730727 13 92 C11.8553125 93.30904297 11.8553125 93.30904297 10.6875 94.64453125 C-0.37957331 106.47423942 -14.97552318 113.51000148 -31.21875 114.12109375 C-38.10666049 114.24619469 -44.40906949 114.05674427 -51 112 C-51.87140625 111.731875 -52.7428125 111.46375 -53.640625 111.1875 C-69.86057322 105.75064585 -82.78055468 95.21245453 -90.609375 79.83984375 C-96.80269543 65.43126593 -99.16521416 47.50854527 -94.4375 32.25 C-93.32421875 29.58984375 -93.32421875 29.58984375 -92 27 C-91.49082031 25.99066406 -90.98164063 24.98132813 -90.45703125 23.94140625 C-81.74776082 7.97773207 -67.99028514 -3.64710274 -50.4375 -8.8125 C-32.8013608 -12.77949789 -15.35504031 -9.39881471 0 0 Z " fill="#001B2E" transform="translate(447,196)"/>
<path d="M0 0 C3.62971585 2.74735398 6.82601068 5.74292195 10 9 C10.70769531 9.67546875 11.41539062 10.3509375 12.14453125 11.046875 C24.13271371 23.24135506 27.42643258 39.17638584 27.43945312 55.73364258 C27.04229111 70.97473494 20.19271039 84.87889297 9.75 95.8125 C-4.0542996 108.8655452 -19.70549169 114.33166639 -38.57421875 114.15234375 C-42.95286343 113.95762637 -46.8253579 113.3027252 -51 112 C-51.87140625 111.731875 -52.7428125 111.46375 -53.640625 111.1875 C-69.89998223 105.73743612 -81.32126076 95.5991195 -90 81 C-97.07759364 66.64259576 -99.28883113 47.69517386 -94.4375 32.1875 C-93.31640625 29.546875 -93.31640625 29.546875 -92 27 C-91.51402344 26.01515625 -91.02804688 25.0303125 -90.52734375 24.015625 C-82.54133734 9.13862015 -70.44085851 -2.00807254 -54.4375 -7.5 C-52.63638781 -8.03958423 -50.82390301 -8.5433447 -49 -9 C-47.85917969 -9.28617188 -47.85917969 -9.28617188 -46.6953125 -9.578125 C-29.95636226 -12.1981346 -14.39881175 -8.72040712 0 0 Z " fill="#001B2E" transform="translate(283,196)"/>
<path d="M0 0 C0.98355469 0.32871094 1.96710938 0.65742188 2.98046875 0.99609375 C19.43145769 7.14659285 31.90667035 19.41140603 39.48046875 35.05859375 C46.78560828 51.87541056 47.37028003 69.74715824 41 87 C33.80501865 105.10476286 20.79989638 117.27819487 3 125 C-12.22595076 130.9034381 -29.74091568 130.97622921 -45 125 C-63.11681916 116.73916024 -75.3396095 104.51333191 -83.2578125 86.0703125 C-88.83402465 70.12156586 -88.32864727 50.22811881 -81 35 C-71.90593161 17.00220418 -58.07796452 5.31219179 -38.890625 -1.02734375 C-26.10311779 -4.47869831 -12.53984115 -4.28401212 0 0 Z M-68 22 C-73.94468916 29.64115777 -78.23482398 37.7004497 -81 47 C-81.33 47.99 -81.66 48.98 -82 50 C-83.53763104 71.10266041 -81.19324801 88.06381796 -67.25 104.75 C-56.18113925 116.52266115 -41.03379522 124.47610811 -24.79296875 125.12890625 C-5.14051033 125.44828531 10.20125648 119.19739148 24.6875 105.875 C36.20461538 93.86252482 41.64632425 78.55372457 41.40063477 62.0925293 C40.75602242 44.24515972 34.71240641 30.57859161 22 18 C21.40960938 17.37609375 20.81921875 16.7521875 20.2109375 16.109375 C12.12270775 8.19930009 -0.65881829 1.72760719 -12 1 C-12.63631348 0.95907227 -13.27262695 0.91814453 -13.92822266 0.87597656 C-35.05723597 -0.28322118 -53.47231367 5.8795773 -68 22 Z " fill="#EEEEE0" transform="translate(269,185)"/>
<path d="M0 0 C1.89574075 1.51608975 3.77265907 3.05618064 5.625 4.625 C6.36492187 5.23988281 7.10484375 5.85476562 7.8671875 6.48828125 C18.10120639 15.78650464 25.72820196 31.27539648 26.81787109 45.06591797 C27.22356934 57.91302907 27.06367875 68.75486781 21.625 80.625 C20.95597656 82.11193359 20.95597656 82.11193359 20.2734375 83.62890625 C12.40162534 99.43849549 -2.21097434 111.3571169 -18.8125 117 C-35.22862411 122.13701843 -53.64324031 120.93914564 -68.96166992 112.93945312 C-75.88710243 109.05932002 -81.80688988 104.27308297 -87.375 98.625 C-88.02082031 97.98949219 -88.66664063 97.35398437 -89.33203125 96.69921875 C-100.19175864 85.27166248 -105.14758138 69.28926439 -104.9375 53.8125 C-104.92799316 52.67683594 -104.91848633 51.54117188 -104.90869141 50.37109375 C-104.58190143 37.13326631 -100.99837454 26.55057885 -93.375 15.625 C-92.87484375 14.86832031 -92.3746875 14.11164063 -91.859375 13.33203125 C-82.53910484 0.18864056 -66.44815435 -8.85323048 -50.796875 -11.9453125 C-32.38199088 -14.25768379 -15.20772343 -11.10374762 0 0 Z M-86.68359375 13.34375 C-99.17080958 29.25521056 -101.97510821 44.8007085 -100.375 64.625 C-98.81377505 74.71382484 -94.47259264 83.48114317 -88.375 91.625 C-87.92640625 92.25535156 -87.4778125 92.88570313 -87.015625 93.53515625 C-78.29080969 104.80043249 -64.1716384 112.37570033 -50.375 115.25 C-33.14336238 117.35141922 -15.84612478 114.20039492 -1.78125 103.62890625 C10.97302243 93.00724755 21.16003223 79.81297578 22.91162109 62.84912109 C24.09763611 44.53310581 21.67631385 28.42596958 9.29882812 14.08886719 C3.1771134 7.29849841 -3.12514823 1.72260849 -11.375 -2.375 C-12.11234375 -2.76171875 -12.8496875 -3.1484375 -13.609375 -3.546875 C-38.43527835 -15.69572132 -69.26249994 -7.172462 -86.68359375 13.34375 Z " fill="#EEEEE0" transform="translate(451.375,194.375)"/>
<path d="M0 0 C0.94617188 0.31710938 1.89234375 0.63421875 2.8671875 0.9609375 C19.59253435 7.08632427 32.21241539 20.2074109 40 36 C42.64492561 42.46804536 44.72289076 48.97989919 45 56 C45.0515625 57.19625 45.103125 58.3925 45.15625 59.625 C45.7282916 79.31652341 39.15131985 96.25298534 25.6875 110.75 C12.30726901 123.43239581 -5.55384479 129.55138622 -23.7109375 129.49194336 C-40.91489897 128.94749259 -56.73146585 120.8329649 -69 109 C-75.1047671 102.06104112 -79.85380621 94.70370398 -83 86 C-83.25821533 85.30986816 -83.51643066 84.61973633 -83.7824707 83.90869141 C-86.21385796 76.79268232 -86.48359694 70.10108593 -86.4375 62.625 C-86.45748047 61.48289062 -86.47746094 60.34078125 -86.49804688 59.1640625 C-86.48844194 42.25937483 -78.81011007 26.93062139 -67 15 C-59.53267754 8.57627582 -51.25567802 3.40852813 -42 0 C-41.20078125 -0.31710938 -40.4015625 -0.63421875 -39.578125 -0.9609375 C-27.43652889 -5.0709809 -11.90118231 -4.58885713 0 0 Z M-69 23 C-79.72572126 37.03040295 -84.23479118 52.46596522 -83 70 C-80.48449266 87.64312883 -71.85005732 102.14941124 -58.1171875 113.3515625 C-43.36509172 123.85505469 -26.15251559 127.04353863 -8.375 124.3125 C8.13024424 120.80332051 22.29409877 110.75109538 31.6875 96.8125 C36.6140838 88.69547407 40.76171764 79.61639537 41 70 C41.03867188 68.95199219 41.07734375 67.90398437 41.1171875 66.82421875 C41.47560979 48.60441899 37.0507302 33.35582732 24.27954102 20.03100586 C10.95255629 6.83653701 -3.69603725 0.57764904 -22.32739258 0.63134766 C-41.1621944 1.14011687 -56.29953009 9.36215822 -69 23 Z " fill="#EEEEE1" transform="translate(105,185)"/>
</svg>
