<?xml version="1.0" encoding="UTF-8"?>
<svg version="1.1" xmlns="http://www.w3.org/2000/svg" width="500" height="500">
<path d="M0 0 C165 0 330 0 500 0 C500 165 500 330 500 500 C335 500 170 500 0 500 C0 335 0 170 0 0 Z " fill="#011C2F" transform="translate(0,0)"/>
<path d="M0 0 C54.12 0 108.24 0 164 0 C164 53.79 164 107.58 164 163 C109.88 163 55.76 163 0 163 C0 109.21 0 55.42 0 0 Z " fill="#011C2F" transform="translate(332,333)"/>
<path d="M0 0 C54.12 0 108.24 0 164 0 C164 53.46 164 106.92 164 162 C109.88 162 55.76 162 0 162 C0 108.54 0 55.08 0 0 Z " fill="#021D2F" transform="translate(332,167)"/>
<path d="M0 0 C52.8 0 105.6 0 160 0 C160 53.79 160 107.58 160 163 C107.2 163 54.4 163 0 163 C0 109.21 0 55.42 0 0 Z " fill="#011C2F" transform="translate(168,333)"/>
<path d="M0 0 C52.8 0 105.6 0 160 0 C160 53.79 160 107.58 160 163 C107.2 163 54.4 163 0 163 C0 109.21 0 55.42 0 0 Z " fill="#011B2E" transform="translate(4,333)"/>
<path d="M0 0 C52.8 0 105.6 0 160 0 C160 53.46 160 106.92 160 162 C107.2 162 54.4 162 0 162 C0 108.54 0 55.08 0 0 Z " fill="#001B2E" transform="translate(168,167)"/>
<path d="M0 0 C52.8 0 105.6 0 160 0 C160 53.46 160 106.92 160 162 C107.2 162 54.4 162 0 162 C0 108.54 0 55.08 0 0 Z " fill="#001B2E" transform="translate(4,167)"/>
<path d="M0 0 C52.8 0 105.6 0 160 0 C160 52.47 160 104.94 160 159 C107.2 159 54.4 159 0 159 C0 106.53 0 54.06 0 0 Z " fill="#011C2F" transform="translate(168,4)"/>
<path d="M0 0 C52.8 0 105.6 0 160 0 C160 52.47 160 104.94 160 159 C107.2 159 54.4 159 0 159 C0 106.53 0 54.06 0 0 Z " fill="#001B2E" transform="translate(4,4)"/>
<path d="M0 0 C165 0 330 0 500 0 C500 165 500 330 500 500 C335 500 170 500 0 500 C0 335 0 170 0 0 Z M4 4 C4 56.47 4 108.94 4 163 C56.8 163 109.6 163 164 163 C164 110.53 164 58.06 164 4 C111.2 4 58.4 4 4 4 Z M168 4 C168 56.47 168 108.94 168 163 C220.8 163 273.6 163 328 163 C328 110.53 328 58.06 328 4 C275.2 4 222.4 4 168 4 Z M332 4 C332 56.47 332 108.94 332 163 C386.12 163 440.24 163 496 163 C496 110.53 496 58.06 496 4 C441.88 4 387.76 4 332 4 Z M4 167 C4 220.46 4 273.92 4 329 C56.8 329 109.6 329 164 329 C164 275.54 164 222.08 164 167 C111.2 167 58.4 167 4 167 Z M168 167 C168 220.46 168 273.92 168 329 C220.8 329 273.6 329 328 329 C328 275.54 328 222.08 328 167 C275.2 167 222.4 167 168 167 Z M332 167 C332 220.46 332 273.92 332 329 C386.12 329 440.24 329 496 329 C496 275.54 496 222.08 496 167 C441.88 167 387.76 167 332 167 Z M4 333 C4 386.79 4 440.58 4 496 C56.8 496 109.6 496 164 496 C164 442.21 164 388.42 164 333 C111.2 333 58.4 333 4 333 Z M168 333 C168 386.79 168 440.58 168 496 C220.8 496 273.6 496 328 496 C328 442.21 328 388.42 328 333 C275.2 333 222.4 333 168 333 Z M332 333 C332 386.79 332 440.58 332 496 C386.12 496 440.24 496 496 496 C496 442.21 496 388.42 496 333 C441.88 333 387.76 333 332 333 Z " fill="#FAF8E9" transform="translate(0,0)"/>
<path d="M0 0 C12.8691515 12.21025094 20.27296741 26.89013177 21.14135742 44.73046875 C21.52312814 62.47371742 14.93149362 78.06438705 2.875 91 C-7.91342652 100.93726861 -21.40663491 108.24139318 -36.3125 108.625 C-37.075625 108.66367187 -37.83875 108.70234375 -38.625 108.7421875 C-57.60428769 109.28966695 -72.67578416 102.71075206 -86.5 89.9375 C-99.31010503 76.46979204 -104.00098639 59.41040611 -103.65625 41.22265625 C-102.79134243 24.15875063 -93.43663119 10.0286874 -81.2265625 -1.3125 C-57.21874432 -21.30414042 -23.4536118 -20.23933669 0 0 Z " fill="#011C2E" transform="translate(456.3125,201.375)"/>
<path d="M0 0 C12.17312749 11.54986337 19.83768033 25.48651817 20.93359375 42.4296875 C21.25970105 61.49737287 15.46829944 77.23288011 2.4375 91.3125 C-9.96747689 103.06755783 -24.39518873 108.43558932 -41.3125 108.875 C-60.04384092 108.35973658 -75.43187174 101.55108017 -88.40234375 87.94140625 C-100.27878798 73.53909249 -104.47843851 57.2749885 -103.5390625 38.89453125 C-101.85083107 21.98310947 -91.92073556 7.592685 -79.125 -3.0625 C-54.7658193 -21.00242016 -22.94586244 -19.80117346 0 0 Z " fill="#011C2E" transform="translate(291.3125,35.375)"/>
<path d="M0 0 C2.48878936 2.18666015 4.82610307 4.451154 7.13671875 6.82421875 C7.75933594 7.41460937 8.38195312 8.005 9.0234375 8.61328125 C13.13642399 12.80945173 15.79778042 17.57106911 18.44921875 22.76171875 C18.78711426 23.41793213 19.12500977 24.07414551 19.47314453 24.75024414 C25.94068291 38.00460444 26.45986205 54.90748075 22.07421875 68.88671875 C15.79145857 84.93488333 5.74968287 97.92516971 -9.86328125 105.82421875 C-23.95143348 111.76258369 -38.94815218 114.31672751 -53.86328125 109.82421875 C-54.80816406 109.56769531 -55.75304687 109.31117188 -56.7265625 109.046875 C-64.16711976 106.84401624 -69.83391544 103.67349487 -75.86328125 98.82421875 C-76.64703125 98.20417969 -77.43078125 97.58414063 -78.23828125 96.9453125 C-87.46677262 89.22892191 -92.88545541 80.10217441 -96.86328125 68.82421875 C-97.23066406 67.80070312 -97.59804687 66.7771875 -97.9765625 65.72265625 C-100.86465694 53.02521902 -100.76794971 36.55951594 -94.86328125 24.82421875 C-94.46238281 23.92445312 -94.06148437 23.0246875 -93.6484375 22.09765625 C-86.34224074 7.06171509 -73.08558095 -4.22070824 -57.36328125 -9.67578125 C-37.75972198 -15.62292845 -16.40921963 -12.46921601 0 0 Z " fill="#001B2E" transform="translate(122.86328125,32.17578125)"/>
<path d="M0 0 C3.62971585 2.74735398 6.82601068 5.74292195 10 9 C10.70769531 9.67546875 11.41539062 10.3509375 12.14453125 11.046875 C24.14128353 23.25007235 27.40140621 39.16509438 27.44384766 55.72705078 C27.03773046 72.15043035 19.29092142 85.51835356 8 97 C7.0409375 97.97839844 7.0409375 97.97839844 6.0625 98.9765625 C-6.19728958 110.57228015 -22.21370859 114.30782906 -38.57421875 114.15234375 C-42.95286343 113.95762637 -46.8253579 113.3027252 -51 112 C-51.87140625 111.731875 -52.7428125 111.46375 -53.640625 111.1875 C-69.89998223 105.73743612 -81.32126076 95.5991195 -90 81 C-97.07759364 66.64259576 -99.28883113 47.69517386 -94.4375 32.1875 C-93.31640625 29.546875 -93.31640625 29.546875 -92 27 C-91.51402344 26.01515625 -91.02804688 25.0303125 -90.52734375 24.015625 C-82.54133734 9.13862015 -70.44085851 -2.00807254 -54.4375 -7.5 C-52.63638781 -8.03958423 -50.82390301 -8.5433447 -49 -9 C-47.85917969 -9.28617187 -47.85917969 -9.28617187 -46.6953125 -9.578125 C-29.95636226 -12.1981346 -14.39881175 -8.72040712 0 0 Z " fill="#001B2E" transform="translate(283,362)"/>
<path d="M0 0 C0.99386719 -0.00773437 1.98773438 -0.01546875 3.01171875 -0.0234375 C19.17820151 0.01927448 33.25315066 6.47658935 44.94140625 17.56640625 C58.38331039 31.73612922 62.83736566 46.42606837 62.6484375 65.5078125 C61.96949287 82.62436397 54.62871799 96.84382099 42.1875 108.5625 C27.45536838 120.8011102 11.24101437 124.79600485 -7.5 123.25 C-22.48345732 121.52351109 -34.00702693 114.89128364 -44.5 104.25 C-45.14710937 103.61320312 -45.79421875 102.97640625 -46.4609375 102.3203125 C-57.22693364 90.99015936 -61.03537591 76.59025515 -60.9375 61.375 C-60.9674707 59.73337891 -60.9674707 59.73337891 -60.99804688 58.05859375 C-60.98790524 40.9192333 -53.21438556 28.18617255 -41.5 16.25 C-40.57767578 15.2909375 -40.57767578 15.2909375 -39.63671875 14.3125 C-28.65402988 3.7766443 -14.82965019 -0.11540584 0 0 Z " fill="#001B2E" transform="translate(84.5,351.75)"/>
<path d="M0 0 C3.93712187 1.82075671 6.63336039 4.37649498 9.640625 7.4453125 C10.43119293 8.24012527 10.43119293 8.24012527 11.23773193 9.05099487 C12.91325675 10.73767825 14.58167722 12.43119564 16.25 14.125 C17.38755851 15.27259388 18.52557436 16.41973461 19.6640625 17.56640625 C22.44803465 20.37238137 25.2256576 23.18450464 28 26 C34.18134869 20.89551178 39.79822878 15.31705058 45.4375 9.625 C46.35982422 8.69816406 47.28214844 7.77132812 48.23242188 6.81640625 C50.49058625 4.54654154 52.74636942 2.27436462 55 0 C59.66874537 3.89976721 64.09127809 7.95214644 68.37109375 12.2734375 C68.93828629 12.84204498 69.50547882 13.41065247 70.08985901 13.99649048 C71.87479913 15.78696236 73.65620256 17.58090484 75.4375 19.375 C76.65796939 20.60049323 77.87867053 21.82575572 79.09960938 23.05078125 C82.06908756 26.03119774 85.03540257 29.01472894 88 32 C86.41568547 35.90851199 83.73364905 38.52367356 80.7734375 41.421875 C80.01191879 42.17914886 80.01191879 42.17914886 79.23501587 42.95172119 C77.61966158 44.55592096 75.99747791 46.15300856 74.375 47.75 C73.27558302 48.83938107 72.17661941 49.9292199 71.078125 51.01953125 C68.3906398 53.68501885 65.69700979 56.34415143 63 59 C64.58431453 62.90851199 67.26635095 65.52367356 70.2265625 68.421875 C70.98808121 69.17914886 70.98808121 69.17914886 71.76498413 69.95172119 C73.38033842 71.55592096 75.00252209 73.15300856 76.625 74.75 C77.72441698 75.83938107 78.82338059 76.9292199 79.921875 78.01953125 C82.6093602 80.68501885 85.30299021 83.34415143 88 86 C86.68623083 88.90543872 85.27943508 90.96661059 83.01904297 93.20800781 C82.41857147 93.80832825 81.81809998 94.40864868 81.19943237 95.02716064 C80.55354156 95.66272888 79.90765076 96.29829712 79.2421875 96.953125 C78.57913605 97.61334656 77.91608459 98.27356812 77.23294067 98.95379639 C75.11828168 101.05727824 72.99676788 103.15369142 70.875 105.25 C69.43834443 106.67662261 68.00214102 108.10370072 66.56640625 109.53125 C63.04949196 113.02613661 59.52641453 116.51470062 56 120 C51.8230787 116.48759425 47.79094884 112.9137655 43.94140625 109.0390625 C43.06162109 108.15605469 42.18183594 107.27304687 41.27539062 106.36328125 C39.93250977 105.00783203 39.93250977 105.00783203 38.5625 103.625 C37.64017578 102.69816406 36.71785156 101.77132812 35.76757812 100.81640625 C33.50941375 98.54654154 31.25363058 96.27436462 29 94 C22.81865131 99.10448822 17.20177122 104.68294942 11.5625 110.375 C10.64017578 111.30183594 9.71785156 112.22867188 8.76757812 113.18359375 C6.50941375 115.45345846 4.25363058 117.72563538 2 120 C-2.22478796 118.34863168 -5.08411441 115.22174789 -8.2265625 112.07421875 C-8.81545258 111.4896138 -9.40434265 110.90500885 -10.01107788 110.3026886 C-11.25244335 109.06705561 -12.49121053 107.82880751 -13.72753906 106.58813477 C-15.61660866 104.69590537 -17.51860339 102.81738387 -19.421875 100.93945312 C-20.62841474 99.73518655 -21.83417056 98.53013397 -23.0390625 97.32421875 C-23.60678375 96.76570724 -24.174505 96.20719574 -24.75942993 95.63175964 C-25.28692841 95.09803238 -25.81442688 94.56430511 -26.35791016 94.0144043 C-26.82105621 93.55188766 -27.28420227 93.08937103 -27.76138306 92.61283875 C-29 91 -29 91 -31 86 C-22.75 77.75 -14.5 69.5 -6 61 C-7.96822469 57.06355061 -10.14111179 54.67569818 -13.26171875 51.71875 C-14.30835857 50.70225094 -15.35457 49.68531062 -16.40039062 48.66796875 C-18.0481425 47.07616896 -19.69947693 45.48859524 -21.35864258 43.90869141 C-22.9624277 42.37723431 -24.55032074 40.8306825 -26.13671875 39.28125 C-26.8896949 38.57639465 -26.8896949 38.57639465 -27.65788269 37.8572998 C-29.03393555 36.50195312 -29.03393555 36.50195312 -31 34 C-30.6678694 30.71761758 -29.43712698 29.0676233 -27.13256836 26.79199219 C-26.53202133 26.19167175 -25.9314743 25.59135132 -25.31272888 24.97283936 C-24.66167679 24.33727112 -24.01062469 23.70170288 -23.33984375 23.046875 C-22.67537735 22.38665344 -22.01091095 21.72643188 -21.3263092 21.04620361 C-19.20364437 18.9403236 -17.07078395 16.84511672 -14.9375 14.75 C-13.49606066 13.32360768 -12.05529691 11.8965323 -10.61523438 10.46875 C-7.08461168 6.97119406 -3.54480947 3.48317435 0 0 Z " fill="#011C2F" transform="translate(57,188)"/>
<path d="M0 0 C3.93712187 1.82075671 6.63336039 4.37649498 9.640625 7.4453125 C10.43119293 8.24012527 10.43119293 8.24012527 11.23773193 9.05099487 C12.91325675 10.73767825 14.58167722 12.43119564 16.25 14.125 C17.38755851 15.27259388 18.52557436 16.41973461 19.6640625 17.56640625 C22.44803465 20.37238137 25.2256576 23.18450464 28 26 C34.18134869 20.89551178 39.79822878 15.31705058 45.4375 9.625 C46.35982422 8.69816406 47.28214844 7.77132812 48.23242188 6.81640625 C50.49058625 4.54654154 52.74636942 2.27436462 55 0 C59.66874537 3.89976721 64.09127809 7.95214644 68.37109375 12.2734375 C68.93828629 12.84204498 69.50547882 13.41065247 70.08985901 13.99649048 C71.87479913 15.78696236 73.65620256 17.58090484 75.4375 19.375 C76.65796939 20.60049323 77.87867053 21.82575572 79.09960938 23.05078125 C82.06908756 26.03119774 85.03540257 29.01472894 88 32 C86.41568547 35.90851199 83.73364905 38.52367356 80.7734375 41.421875 C80.01191879 42.17914886 80.01191879 42.17914886 79.23501587 42.95172119 C77.61966158 44.55592096 75.99747791 46.15300856 74.375 47.75 C73.27558302 48.83938107 72.17661941 49.9292199 71.078125 51.01953125 C68.3906398 53.68501885 65.69700979 56.34415143 63 59 C64.58431453 62.90851199 67.26635095 65.52367356 70.2265625 68.421875 C70.98808121 69.17914886 70.98808121 69.17914886 71.76498413 69.95172119 C73.38033842 71.55592096 75.00252209 73.15300856 76.625 74.75 C77.72441698 75.83938107 78.82338059 76.9292199 79.921875 78.01953125 C82.6093602 80.68501885 85.30299021 83.34415143 88 86 C86.68623083 88.90543872 85.27943508 90.96661059 83.01904297 93.20800781 C82.41857147 93.80832825 81.81809998 94.40864868 81.19943237 95.02716064 C80.55354156 95.66272888 79.90765076 96.29829712 79.2421875 96.953125 C78.57913605 97.61334656 77.91608459 98.27356812 77.23294067 98.95379639 C75.11828168 101.05727824 72.99676788 103.15369142 70.875 105.25 C69.43834443 106.67662261 68.00214102 108.10370072 66.56640625 109.53125 C63.04949196 113.02613661 59.52641453 116.51470062 56 120 C51.8230787 116.48759425 47.79094884 112.9137655 43.94140625 109.0390625 C43.06162109 108.15605469 42.18183594 107.27304687 41.27539062 106.36328125 C39.93250977 105.00783203 39.93250977 105.00783203 38.5625 103.625 C37.64017578 102.69816406 36.71785156 101.77132812 35.76757812 100.81640625 C33.50941375 98.54654154 31.25363058 96.27436462 29 94 C22.81865131 99.10448822 17.20177122 104.68294942 11.5625 110.375 C10.64017578 111.30183594 9.71785156 112.22867188 8.76757812 113.18359375 C6.50941375 115.45345846 4.25363058 117.72563538 2 120 C-2.01143725 118.15269107 -4.75905444 115.50538277 -7.8125 112.375 C-8.3472998 111.83375488 -8.88209961 111.29250977 -9.43310547 110.73486328 C-12.8268889 107.27520113 -16.05974609 103.71601825 -19.19921875 100.0234375 C-22.93368235 95.82722894 -26.99328899 91.93415488 -31 88 C-29.41568547 84.09148801 -26.73364905 81.47632644 -23.7734375 78.578125 C-23.01191879 77.82085114 -23.01191879 77.82085114 -22.23501587 77.04827881 C-20.61966158 75.44407904 -18.99747791 73.84699144 -17.375 72.25 C-16.27558302 71.16061893 -15.17661941 70.0707801 -14.078125 68.98046875 C-11.3906398 66.31498115 -8.69700979 63.65584857 -6 61 C-7.57219198 57.08810726 -10.26110501 54.56199795 -13.26171875 51.71875 C-14.30835857 50.70225094 -15.35457 49.68531062 -16.40039062 48.66796875 C-18.0481425 47.07616896 -19.69947693 45.48859524 -21.35864258 43.90869141 C-22.9624277 42.37723431 -24.55032074 40.8306825 -26.13671875 39.28125 C-26.8896949 38.57639465 -26.8896949 38.57639465 -27.65788269 37.8572998 C-29.03393555 36.50195312 -29.03393555 36.50195312 -31 34 C-30.6678694 30.71761758 -29.43712698 29.0676233 -27.13256836 26.79199219 C-26.53202133 26.19167175 -25.9314743 25.59135132 -25.31272888 24.97283936 C-24.66167679 24.33727112 -24.01062469 23.70170288 -23.33984375 23.046875 C-22.67537735 22.38665344 -22.01091095 21.72643188 -21.3263092 21.04620361 C-19.20364437 18.9403236 -17.07078395 16.84511672 -14.9375 14.75 C-13.49606066 13.32360768 -12.05529691 11.8965323 -10.61523438 10.46875 C-7.08461168 6.97119406 -3.54480947 3.48317435 0 0 Z " fill="#011C2F" transform="translate(220,190)"/>
<path d="M0 0 C3.07572215 1.61557118 5.31495194 3.96680689 7.70849609 6.43383789 C8.49906403 7.23077309 8.49906403 7.23077309 9.30560303 8.04380798 C10.98354296 9.73850989 12.65073838 11.44335381 14.31787109 13.14868164 C15.45519854 14.30105909 16.59321176 15.45276016 17.73193359 16.60375977 C20.51859101 19.42345348 23.29565901 22.25228752 26.06787109 25.08618164 C29.97638308 23.50186711 32.59154465 20.81983069 35.48974609 17.85961914 C35.99459534 17.35194 36.49944458 16.84426086 37.01959229 16.32119751 C38.62379206 14.70584322 40.22087965 13.08365955 41.81787109 11.46118164 C42.90725217 10.36176466 43.99709099 9.26280105 45.08740234 8.16430664 C47.75288994 5.47682145 50.41202253 2.78319143 53.06787109 0.08618164 C57.07304505 1.68991312 59.74498089 4.5073215 62.70849609 7.53149414 C63.23554138 8.06136932 63.76258667 8.59124451 64.30560303 9.13717651 C65.98112785 10.82385989 67.64954832 12.51737728 69.31787109 14.21118164 C70.4554296 15.35877552 71.59344546 16.50591625 72.73193359 17.65258789 C75.51590574 20.45856302 78.29352869 23.27068628 81.06787109 26.08618164 C75.96338287 32.26753033 70.38492167 37.88441042 64.69287109 43.52368164 C63.30261719 44.90716797 63.30261719 44.90716797 61.88427734 46.31860352 C59.61441264 48.57676789 57.34223572 50.83255106 55.06787109 53.08618164 C56.67160258 57.0913556 59.48901095 59.76329144 62.51318359 62.72680664 C63.04305878 63.25385193 63.57293396 63.78089722 64.11886597 64.32391357 C65.80554935 65.99943839 67.49906673 67.66785886 69.19287109 69.33618164 C70.34046498 70.47374015 71.48760571 71.611756 72.63427734 72.75024414 C75.44025247 75.53421629 78.25237573 78.31183924 81.06787109 81.08618164 C75.96338287 87.26753033 70.38492167 92.88441042 64.69287109 98.52368164 C63.76603516 99.44600586 62.83919922 100.36833008 61.88427734 101.31860352 C59.61441264 103.57676789 57.34223572 105.83255106 55.06787109 108.08618164 C51.06269713 106.48245016 48.3907613 103.66504178 45.42724609 100.64086914 C44.90020081 100.11099396 44.37315552 99.58111877 43.83013916 99.03518677 C42.15461434 97.34850339 40.48619387 95.654986 38.81787109 93.96118164 C37.68031259 92.81358776 36.54229673 91.66644703 35.40380859 90.51977539 C32.61983645 87.71380027 29.8422135 84.901677 27.06787109 82.08618164 C20.8865224 87.19066986 15.26964232 92.76913106 9.63037109 98.46118164 C8.70804687 99.38801758 7.78572266 100.31485352 6.83544922 101.26977539 C4.57728485 103.5396401 2.32150168 105.81181702 0.06787109 108.08618164 C-5.74397336 104.89471015 -10.11070975 100.31598207 -14.76367188 95.68017578 C-16.311526 94.14431862 -17.87708344 92.62810397 -19.44384766 91.11157227 C-20.42806207 90.13681203 -21.41117542 89.16093851 -22.39306641 88.18383789 C-23.28815918 87.30219971 -24.18325195 86.42056152 -25.10546875 85.51220703 C-26.93212891 83.08618164 -26.93212891 83.08618164 -27.05004883 81.12011719 C-25.38368722 78.08835075 -23.04389422 75.83171802 -20.58447266 73.44555664 C-20.05318253 72.91851135 -19.5218924 72.39146606 -18.97450256 71.84844971 C-17.27980066 70.17050977 -15.57495674 68.50331436 -13.86962891 66.83618164 C-12.71725145 65.6988542 -11.56555038 64.56084098 -10.41455078 63.42211914 C-7.59485706 60.63546172 -4.76602302 57.85839372 -1.93212891 55.08618164 C-3.53586039 51.08100768 -6.35326877 48.40907185 -9.37744141 45.44555664 C-10.17225418 44.65498871 -10.17225418 44.65498871 -10.98312378 43.84844971 C-12.66980716 42.17292489 -14.36332454 40.50450442 -16.05712891 38.83618164 C-17.20472279 37.69862313 -18.35186352 36.56060728 -19.49853516 35.42211914 C-22.30451028 32.63814699 -25.11663354 29.86052405 -27.93212891 27.08618164 C-22.83956708 20.96838459 -17.38949055 15.25792608 -11.80712891 9.58618164 C-10.91380859 8.65547852 -10.02048828 7.72477539 -9.10009766 6.76586914 C-8.23771484 5.89188477 -7.37533203 5.01790039 -6.48681641 4.11743164 C-5.31868408 2.91957031 -5.31868408 2.91957031 -4.12695312 1.69750977 C-1.93212891 0.08618164 -1.93212891 0.08618164 0 0 Z " fill="#011C2F" transform="translate(388.93212890625,359.913818359375)"/>
<path d="M0 0 C6.18134869 5.10448822 11.79822878 10.68294942 17.4375 16.375 C18.35982422 17.30183594 19.28214844 18.22867188 20.23242188 19.18359375 C22.49058625 21.45345846 24.74636942 23.72563538 27 26 C33.18134869 20.89551178 38.79822878 15.31705058 44.4375 9.625 C45.35982422 8.69816406 46.28214844 7.77132812 47.23242188 6.81640625 C49.49058625 4.54654154 51.74636942 2.27436462 54 0 C58.00517396 1.60373148 60.6771098 4.42113986 63.640625 7.4453125 C64.16767029 7.97518768 64.69471558 8.50506287 65.23773193 9.05099487 C66.91325675 10.73767825 68.58167722 12.43119564 70.25 14.125 C71.38755851 15.27259388 72.52557436 16.41973461 73.6640625 17.56640625 C76.44803465 20.37238137 79.2256576 23.18450464 82 26 C76.89551178 32.18134869 71.31705058 37.79822878 65.625 43.4375 C64.23474609 44.82098633 64.23474609 44.82098633 62.81640625 46.23242188 C60.54654154 48.49058625 58.27436462 50.74636942 56 53 C57.60373148 57.00517396 60.42113986 59.6771098 63.4453125 62.640625 C63.97518768 63.16767029 64.50506287 63.69471558 65.05099487 64.23773193 C66.73767825 65.91325675 68.43119564 67.58167722 70.125 69.25 C71.27259388 70.38755851 72.41973461 71.52557436 73.56640625 72.6640625 C76.37238137 75.44803465 79.18450464 78.2256576 82 81 C76.89551178 87.18134869 71.31705058 92.79822878 65.625 98.4375 C64.69816406 99.35982422 63.77132812 100.28214844 62.81640625 101.23242188 C60.54654154 103.49058625 58.27436462 105.74636942 56 108 C52.09148801 106.41568547 49.47632644 103.73364905 46.578125 100.7734375 C46.07327576 100.26575836 45.56842651 99.75807922 45.04827881 99.23501587 C43.44407904 97.61966158 41.84699144 95.99747791 40.25 94.375 C39.16061893 93.27558302 38.0707801 92.17661941 36.98046875 91.078125 C34.31498115 88.3906398 31.65584857 85.69700979 29 83 C25.08810726 84.57219198 22.56199795 87.26110501 19.71875 90.26171875 C18.70225094 91.30835857 17.68531062 92.35457 16.66796875 93.40039062 C15.07616896 95.0481425 13.48859524 96.69947693 11.90869141 98.35864258 C10.37723431 99.9624277 8.8306825 101.55032074 7.28125 103.13671875 C6.81134644 103.63870285 6.34144287 104.14068695 5.8572998 104.65788269 C2.60447318 107.96040406 2.60447318 107.96040406 0.0246582 108.12939453 C-2.96716163 106.46049805 -5.27254485 104.19525128 -7.67578125 101.79296875 C-8.46990669 101.0102636 -8.46990669 101.0102636 -9.28007507 100.21174622 C-10.39410394 99.10850389 -11.50420164 98.00127965 -12.6105957 96.89038086 C-14.31016027 95.18984107 -16.02994497 93.51175655 -17.75195312 91.83398438 C-18.83202715 90.75911519 -19.91084787 89.68298486 -20.98828125 88.60546875 C-21.50586502 88.10428024 -22.02344879 87.60309174 -22.55671692 87.0867157 C-25.95410969 83.62172259 -25.95410969 83.62172259 -26.14746094 81.00219727 C-24.43373471 78.01192731 -22.10504842 75.73901957 -19.65234375 73.359375 C-19.12105362 72.83232971 -18.58976349 72.30528442 -18.04237366 71.76226807 C-16.34767175 70.08432813 -14.64282783 68.41713272 -12.9375 66.75 C-11.78512255 65.61267255 -10.63342148 64.47465934 -9.48242188 63.3359375 C-6.66272816 60.54928008 -3.83389412 57.77221208 -1 55 C-2.60373148 50.99482604 -5.42113986 48.3228902 -8.4453125 45.359375 C-9.24012527 44.56880707 -9.24012527 44.56880707 -10.05099487 43.76226807 C-11.73767825 42.08674325 -13.43119564 40.41832278 -15.125 38.75 C-16.27259388 37.61244149 -17.41973461 36.47442564 -18.56640625 35.3359375 C-21.37238137 32.55196535 -24.18450464 29.7743424 -27 27 C-22.7150904 21.88191353 -18.23305644 17.07937125 -13.5 12.375 C-12.86191406 11.73304687 -12.22382813 11.09109375 -11.56640625 10.4296875 C-7.86239772 6.73325363 -4.07537491 3.2829409 0 0 Z " fill="#011C2F" transform="translate(388,28)"/>
<path d="M0 0 C3.93712187 1.82075671 6.63336039 4.37649498 9.640625 7.4453125 C10.43119293 8.24012527 10.43119293 8.24012527 11.23773193 9.05099487 C12.91325675 10.73767825 14.58167722 12.43119564 16.25 14.125 C17.38755851 15.27259388 18.52557436 16.41973461 19.6640625 17.56640625 C22.44803465 20.37238137 25.2256576 23.18450464 28 26 C34.18134869 20.89551178 39.79822878 15.31705058 45.4375 9.625 C46.35982422 8.69816406 47.28214844 7.77132812 48.23242188 6.81640625 C50.49058625 4.54654154 52.74636942 2.27436462 55 0 C59.66874537 3.89976721 64.09127809 7.95214644 68.37109375 12.2734375 C68.93828629 12.84204498 69.50547882 13.41065247 70.08985901 13.99649048 C71.87479913 15.78696236 73.65620256 17.58090484 75.4375 19.375 C76.65796939 20.60049323 77.87867053 21.82575572 79.09960938 23.05078125 C82.06908756 26.03119774 85.03540257 29.01472894 88 32 C86.41568547 35.90851199 83.73364905 38.52367356 80.7734375 41.421875 C80.01191879 42.17914886 80.01191879 42.17914886 79.23501587 42.95172119 C77.61966158 44.55592096 75.99747791 46.15300856 74.375 47.75 C73.27558302 48.83938107 72.17661941 49.9292199 71.078125 51.01953125 C68.3906398 53.68501885 65.69700979 56.34415143 63 59 C64.58431453 62.90851199 67.26635095 65.52367356 70.2265625 68.421875 C70.98808121 69.17914886 70.98808121 69.17914886 71.76498413 69.95172119 C73.38033842 71.55592096 75.00252209 73.15300856 76.625 74.75 C77.72441698 75.83938107 78.82338059 76.9292199 79.921875 78.01953125 C82.6093602 80.68501885 85.30299021 83.34415143 88 86 C86.68623083 88.90543872 85.27943508 90.96661059 83.01904297 93.20800781 C82.41857147 93.80832825 81.81809998 94.40864868 81.19943237 95.02716064 C80.55354156 95.66272888 79.90765076 96.29829712 79.2421875 96.953125 C78.57913605 97.61334656 77.91608459 98.27356812 77.23294067 98.95379639 C75.11828168 101.05727824 72.99676788 103.15369142 70.875 105.25 C69.43834443 106.67662261 68.00214102 108.10370072 66.56640625 109.53125 C63.04949196 113.02613661 59.52641453 116.51470062 56 120 C51.8230787 116.48759425 47.79094884 112.9137655 43.94140625 109.0390625 C43.06162109 108.15605469 42.18183594 107.27304687 41.27539062 106.36328125 C39.93250977 105.00783203 39.93250977 105.00783203 38.5625 103.625 C37.64017578 102.69816406 36.71785156 101.77132812 35.76757812 100.81640625 C33.50941375 98.54654154 31.25363058 96.27436462 29 94 C22.81865131 99.10448822 17.20177122 104.68294942 11.5625 110.375 C10.64017578 111.30183594 9.71785156 112.22867188 8.76757812 113.18359375 C6.50941375 115.45345846 4.25363058 117.72563538 2 120 C-2.22478796 118.34863168 -5.08411441 115.22174789 -8.2265625 112.07421875 C-8.81545258 111.4896138 -9.40434265 110.90500885 -10.01107788 110.3026886 C-11.25244335 109.06705561 -12.49121053 107.82880751 -13.72753906 106.58813477 C-15.61660866 104.69590537 -17.51860339 102.81738387 -19.421875 100.93945312 C-20.62841474 99.73518655 -21.83417056 98.53013397 -23.0390625 97.32421875 C-23.60678375 96.76570724 -24.174505 96.20719574 -24.75942993 95.63175964 C-25.28692841 95.09803238 -25.81442688 94.56430511 -26.35791016 94.0144043 C-26.82105621 93.55188766 -27.28420227 93.08937103 -27.76138306 92.61283875 C-29 91 -29 91 -31 86 C-22.75 77.75 -14.5 69.5 -6 61 C-7.96822469 57.06355061 -10.14111179 54.67569818 -13.26171875 51.71875 C-14.30835857 50.70225094 -15.35457 49.68531062 -16.40039062 48.66796875 C-18.0481425 47.07616896 -19.69947693 45.48859524 -21.35864258 43.90869141 C-22.9624277 42.37723431 -24.55032074 40.8306825 -26.13671875 39.28125 C-26.8896949 38.57639465 -26.8896949 38.57639465 -27.65788269 37.8572998 C-29.03393555 36.50195312 -29.03393555 36.50195312 -31 34 C-30.6678694 30.71761758 -29.43712698 29.0676233 -27.13256836 26.79199219 C-26.53202133 26.19167175 -25.9314743 25.59135132 -25.31272888 24.97283936 C-24.66167679 24.33727112 -24.01062469 23.70170288 -23.33984375 23.046875 C-22.67537735 22.38665344 -22.01091095 21.72643188 -21.3263092 21.04620361 C-19.20364437 18.9403236 -17.07078395 16.84511672 -14.9375 14.75 C-13.49606066 13.32360768 -12.05529691 11.8965323 -10.61523438 10.46875 C-7.08461168 6.97119406 -3.54480947 3.48317435 0 0 Z M-2.61376953 8.38671875 C-3.70859409 9.48186113 -4.79790282 10.58253455 -5.8828125 11.6875 C-6.45707977 12.26459717 -7.03134705 12.84169434 -7.62301636 13.4362793 C-9.4617411 15.28622702 -11.29340305 17.14299749 -13.125 19 C-14.3680316 20.25305865 -15.61151546 21.50566884 -16.85546875 22.7578125 C-19.90892412 25.83335632 -22.95606145 28.91503802 -26 32 C-20.89551178 38.18134869 -15.31705058 43.79822878 -9.625 49.4375 C-8.69816406 50.35982422 -7.77132812 51.28214844 -6.81640625 52.23242188 C-4.54654154 54.49058625 -2.27436462 56.74636942 0 59 C-1.60373148 63.00517396 -4.42113986 65.6771098 -7.4453125 68.640625 C-7.97518768 69.16767029 -8.50506287 69.69471558 -9.05099487 70.23773193 C-10.73767825 71.91325675 -12.43119564 73.58167722 -14.125 75.25 C-15.27259388 76.38755851 -16.41973461 77.52557436 -17.56640625 78.6640625 C-20.37238137 81.44803465 -23.18450464 84.2256576 -26 87 C-20.89551178 93.18134869 -15.31705058 98.79822878 -9.625 104.4375 C-8.69816406 105.35982422 -7.77132812 106.28214844 -6.81640625 107.23242188 C-4.54654154 109.49058625 -2.27436462 111.74636942 0 114 C3.91189274 112.42780802 6.43800205 109.73889499 9.28125 106.73828125 C10.29774906 105.69164143 11.31468938 104.64543 12.33203125 103.59960938 C13.92383104 101.9518575 15.51140476 100.30052307 17.09130859 98.64135742 C18.62276569 97.0375723 20.1693175 95.44967926 21.71875 93.86328125 C22.18865356 93.36129715 22.65855713 92.85931305 23.1427002 92.34211731 C26.39273165 89.04243381 26.39273165 89.04243381 28.97753906 88.86181641 C31.9885872 90.55634881 34.25610683 92.88992835 36.640625 95.34765625 C37.16767029 95.87894638 37.69471558 96.41023651 38.23773193 96.95762634 C39.91567187 98.65232825 41.58286728 100.35717217 43.25 102.0625 C44.38732745 103.21487745 45.52534066 104.36657852 46.6640625 105.51757812 C49.45071992 108.33727184 52.22778792 111.16610588 55 114 C58.85978995 112.41291345 61.53587211 109.80296121 64.45703125 106.9140625 C64.96425217 106.41587006 65.47147308 105.91767761 65.99406433 105.40438843 C67.0598617 104.35305388 68.12290806 103.29892403 69.18334961 102.2421875 C70.81246938 100.62503039 72.45931719 99.02746275 74.10742188 97.4296875 C75.14176828 96.40479838 76.17501104 95.37879397 77.20703125 94.3515625 C77.70274124 93.87538483 78.19845123 93.39920715 78.70918274 92.90859985 C81.26200688 90.3804209 81.26200688 90.3804209 82.13378906 87.01806641 C80.44247953 84.00765198 78.10844781 81.7423177 75.65234375 79.359375 C75.12105362 78.83232971 74.58976349 78.30528442 74.04237366 77.76226807 C72.34767175 76.08432813 70.64282783 74.41713272 68.9375 72.75 C67.78512255 71.61267255 66.63342148 70.47465934 65.48242188 69.3359375 C62.66272816 66.54928008 59.83389412 63.77221208 57 61 C58.57219198 57.08810726 61.26110501 54.56199795 64.26171875 51.71875 C65.30835857 50.70225094 66.35457 49.68531062 67.40039062 48.66796875 C69.0481425 47.07616896 70.69947693 45.48859524 72.35864258 43.90869141 C73.9624277 42.37723431 75.55032074 40.8306825 77.13671875 39.28125 C77.63870285 38.81134644 78.14068695 38.34144287 78.65788269 37.8572998 C81.24930491 35.37221191 81.24930491 35.37221191 82.13818359 32.02246094 C80.44365119 29.0114128 78.11007165 26.74389317 75.65234375 24.359375 C74.85540855 23.56880707 74.85540855 23.56880707 74.04237366 22.76226807 C72.34767175 21.08432813 70.64282783 19.41713272 68.9375 17.75 C67.78512255 16.61267255 66.63342148 15.47465934 65.48242188 14.3359375 C62.66272816 11.54928008 59.83389412 8.77221208 57 6 C53.08810726 7.57219198 50.56199795 10.26110501 47.71875 13.26171875 C46.70225094 14.30835857 45.68531062 15.35457 44.66796875 16.40039062 C43.07616896 18.0481425 41.48859524 19.69947693 39.90869141 21.35864258 C38.37723431 22.9624277 36.8306825 24.55032074 35.28125 26.13671875 C34.57639465 26.8896949 34.57639465 26.8896949 33.8572998 27.65788269 C30.60716884 30.95766721 30.60716884 30.95766721 28.01806641 31.13818359 C25.0216118 29.4481919 22.78767654 27.11334432 20.4296875 24.65234375 C19.90738556 24.12105362 19.38508362 23.58976349 18.84695435 23.04237366 C17.1823093 21.3477388 15.52793845 19.64354974 13.875 17.9375 C12.21405126 16.22880079 10.55097277 14.52240821 8.88162231 12.82191467 C7.84367414 11.76413073 6.81069892 10.70144023 5.78317261 9.63352966 C4.55974053 8.38435846 3.28408982 7.18673 2 6 C-0.34376949 5.77523155 -0.34376949 5.77523155 -2.61376953 8.38671875 Z " fill="#EDEDDF" transform="translate(57,188)"/>
<path d="M0 0 C3.93712187 1.82075671 6.63336039 4.37649498 9.640625 7.4453125 C10.43119293 8.24012527 10.43119293 8.24012527 11.23773193 9.05099487 C12.91325675 10.73767825 14.58167722 12.43119564 16.25 14.125 C17.38755851 15.27259388 18.52557436 16.41973461 19.6640625 17.56640625 C22.44803465 20.37238137 25.2256576 23.18450464 28 26 C34.18134869 20.89551178 39.79822878 15.31705058 45.4375 9.625 C46.35982422 8.69816406 47.28214844 7.77132812 48.23242188 6.81640625 C50.49058625 4.54654154 52.74636942 2.27436462 55 0 C59.66874537 3.89976721 64.09127809 7.95214644 68.37109375 12.2734375 C68.93828629 12.84204498 69.50547882 13.41065247 70.08985901 13.99649048 C71.87479913 15.78696236 73.65620256 17.58090484 75.4375 19.375 C76.65796939 20.60049323 77.87867053 21.82575572 79.09960938 23.05078125 C82.06908756 26.03119774 85.03540257 29.01472894 88 32 C86.41568547 35.90851199 83.73364905 38.52367356 80.7734375 41.421875 C80.01191879 42.17914886 80.01191879 42.17914886 79.23501587 42.95172119 C77.61966158 44.55592096 75.99747791 46.15300856 74.375 47.75 C73.27558302 48.83938107 72.17661941 49.9292199 71.078125 51.01953125 C68.3906398 53.68501885 65.69700979 56.34415143 63 59 C64.58431453 62.90851199 67.26635095 65.52367356 70.2265625 68.421875 C70.98808121 69.17914886 70.98808121 69.17914886 71.76498413 69.95172119 C73.38033842 71.55592096 75.00252209 73.15300856 76.625 74.75 C77.72441698 75.83938107 78.82338059 76.9292199 79.921875 78.01953125 C82.6093602 80.68501885 85.30299021 83.34415143 88 86 C86.68623083 88.90543872 85.27943508 90.96661059 83.01904297 93.20800781 C82.41857147 93.80832825 81.81809998 94.40864868 81.19943237 95.02716064 C80.55354156 95.66272888 79.90765076 96.29829712 79.2421875 96.953125 C78.57913605 97.61334656 77.91608459 98.27356812 77.23294067 98.95379639 C75.11828168 101.05727824 72.99676788 103.15369142 70.875 105.25 C69.43834443 106.67662261 68.00214102 108.10370072 66.56640625 109.53125 C63.04949196 113.02613661 59.52641453 116.51470062 56 120 C51.8230787 116.48759425 47.79094884 112.9137655 43.94140625 109.0390625 C43.06162109 108.15605469 42.18183594 107.27304687 41.27539062 106.36328125 C39.93250977 105.00783203 39.93250977 105.00783203 38.5625 103.625 C37.64017578 102.69816406 36.71785156 101.77132812 35.76757812 100.81640625 C33.50941375 98.54654154 31.25363058 96.27436462 29 94 C22.81865131 99.10448822 17.20177122 104.68294942 11.5625 110.375 C10.64017578 111.30183594 9.71785156 112.22867188 8.76757812 113.18359375 C6.50941375 115.45345846 4.25363058 117.72563538 2 120 C-2.01143725 118.15269107 -4.75905444 115.50538277 -7.8125 112.375 C-8.3472998 111.83375488 -8.88209961 111.29250977 -9.43310547 110.73486328 C-12.8268889 107.27520113 -16.05974609 103.71601825 -19.19921875 100.0234375 C-22.93368235 95.82722894 -26.99328899 91.93415488 -31 88 C-29.41568547 84.09148801 -26.73364905 81.47632644 -23.7734375 78.578125 C-23.01191879 77.82085114 -23.01191879 77.82085114 -22.23501587 77.04827881 C-20.61966158 75.44407904 -18.99747791 73.84699144 -17.375 72.25 C-16.27558302 71.16061893 -15.17661941 70.0707801 -14.078125 68.98046875 C-11.3906398 66.31498115 -8.69700979 63.65584857 -6 61 C-7.57219198 57.08810726 -10.26110501 54.56199795 -13.26171875 51.71875 C-14.30835857 50.70225094 -15.35457 49.68531062 -16.40039062 48.66796875 C-18.0481425 47.07616896 -19.69947693 45.48859524 -21.35864258 43.90869141 C-22.9624277 42.37723431 -24.55032074 40.8306825 -26.13671875 39.28125 C-26.8896949 38.57639465 -26.8896949 38.57639465 -27.65788269 37.8572998 C-29.03393555 36.50195312 -29.03393555 36.50195312 -31 34 C-30.6678694 30.71761758 -29.43712698 29.0676233 -27.13256836 26.79199219 C-26.53202133 26.19167175 -25.9314743 25.59135132 -25.31272888 24.97283936 C-24.66167679 24.33727112 -24.01062469 23.70170288 -23.33984375 23.046875 C-22.67537735 22.38665344 -22.01091095 21.72643188 -21.3263092 21.04620361 C-19.20364437 18.9403236 -17.07078395 16.84511672 -14.9375 14.75 C-13.49606066 13.32360768 -12.05529691 11.8965323 -10.61523438 10.46875 C-7.08461168 6.97119406 -3.54480947 3.48317435 0 0 Z M-2.61376953 8.38671875 C-3.70859409 9.48186113 -4.79790282 10.58253455 -5.8828125 11.6875 C-6.45707977 12.26459717 -7.03134705 12.84169434 -7.62301636 13.4362793 C-9.4617411 15.28622702 -11.29340305 17.14299749 -13.125 19 C-14.3680316 20.25305865 -15.61151546 21.50566884 -16.85546875 22.7578125 C-19.90892412 25.83335632 -22.95606145 28.91503802 -26 32 C-20.89551178 38.18134869 -15.31705058 43.79822878 -9.625 49.4375 C-8.69816406 50.35982422 -7.77132812 51.28214844 -6.81640625 52.23242188 C-4.54654154 54.49058625 -2.27436462 56.74636942 0 59 C-1.60373148 63.00517396 -4.42113986 65.6771098 -7.4453125 68.640625 C-7.97518768 69.16767029 -8.50506287 69.69471558 -9.05099487 70.23773193 C-10.73767825 71.91325675 -12.43119564 73.58167722 -14.125 75.25 C-15.27259388 76.38755851 -16.41973461 77.52557436 -17.56640625 78.6640625 C-20.37238137 81.44803465 -23.18450464 84.2256576 -26 87 C-20.89551178 93.18134869 -15.31705058 98.79822878 -9.625 104.4375 C-8.69816406 105.35982422 -7.77132812 106.28214844 -6.81640625 107.23242188 C-4.54654154 109.49058625 -2.27436462 111.74636942 0 114 C4.00517396 112.39626852 6.6771098 109.57886014 9.640625 106.5546875 C10.16767029 106.02481232 10.69471558 105.49493713 11.23773193 104.94900513 C12.91325675 103.26232175 14.58167722 101.56880436 16.25 99.875 C17.38755851 98.72740612 18.52557436 97.58026539 19.6640625 96.43359375 C22.44803465 93.62761863 25.2256576 90.81549536 28 88 C34.18134869 93.10448822 39.79822878 98.68294942 45.4375 104.375 C46.35982422 105.30183594 47.28214844 106.22867188 48.23242188 107.18359375 C50.49058625 109.45345846 52.74636942 111.72563538 55 114 C59.00517396 112.39626852 61.6771098 109.57886014 64.640625 106.5546875 C65.16767029 106.02481232 65.69471558 105.49493713 66.23773193 104.94900513 C67.91325675 103.26232175 69.58167722 101.56880436 71.25 99.875 C72.38755851 98.72740612 73.52557436 97.58026539 74.6640625 96.43359375 C77.44803465 93.62761863 80.2256576 90.81549536 83 88 C77.89551178 81.81865131 72.31705058 76.20177122 66.625 70.5625 C65.69816406 69.64017578 64.77132812 68.71785156 63.81640625 67.76757812 C61.54654154 65.50941375 59.27436462 63.25363058 57 61 C58.57219198 57.08810726 61.26110501 54.56199795 64.26171875 51.71875 C65.30835857 50.70225094 66.35457 49.68531062 67.40039062 48.66796875 C69.0481425 47.07616896 70.69947693 45.48859524 72.35864258 43.90869141 C73.9624277 42.37723431 75.55032074 40.8306825 77.13671875 39.28125 C77.63870285 38.81134644 78.14068695 38.34144287 78.65788269 37.8572998 C81.24930491 35.37221191 81.24930491 35.37221191 82.13818359 32.02246094 C80.44365119 29.0114128 78.11007165 26.74389317 75.65234375 24.359375 C74.85540855 23.56880707 74.85540855 23.56880707 74.04237366 22.76226807 C72.34767175 21.08432813 70.64282783 19.41713272 68.9375 17.75 C67.78512255 16.61267255 66.63342148 15.47465934 65.48242188 14.3359375 C62.66272816 11.54928008 59.83389412 8.77221208 57 6 C53.08810726 7.57219198 50.56199795 10.26110501 47.71875 13.26171875 C46.70225094 14.30835857 45.68531062 15.35457 44.66796875 16.40039062 C43.07616896 18.0481425 41.48859524 19.69947693 39.90869141 21.35864258 C38.37723431 22.9624277 36.8306825 24.55032074 35.28125 26.13671875 C34.57639465 26.8896949 34.57639465 26.8896949 33.8572998 27.65788269 C30.60716884 30.95766721 30.60716884 30.95766721 28.01806641 31.13818359 C25.0216118 29.4481919 22.78767654 27.11334432 20.4296875 24.65234375 C19.90738556 24.12105362 19.38508362 23.58976349 18.84695435 23.04237366 C17.1823093 21.3477388 15.52793845 19.64354974 13.875 17.9375 C12.21405126 16.22880079 10.55097277 14.52240821 8.88162231 12.82191467 C7.84367414 11.76413073 6.81069892 10.70144023 5.78317261 9.63352966 C4.55974053 8.38435846 3.28408982 7.18673 2 6 C-0.34376949 5.77523155 -0.34376949 5.77523155 -2.61376953 8.38671875 Z " fill="#EEEEE0" transform="translate(220,190)"/>
<path d="M0 0 C4.1769213 3.51240575 8.20905116 7.0862345 12.05859375 10.9609375 C13.37827148 12.28544922 13.37827148 12.28544922 14.72460938 13.63671875 C15.61986328 14.54035156 16.51511719 15.44398437 17.4375 16.375 C18.35982422 17.30183594 19.28214844 18.22867188 20.23242188 19.18359375 C22.49058625 21.45345846 24.74636942 23.72563538 27 26 C30.94567024 24.18844623 33.11447253 21.89698205 36 18.625 C41.76383186 12.17109697 47.83475179 6.06841185 54 0 C56.82779011 1.29050523 58.9140819 2.65402026 61.13208008 4.82568359 C62.00737114 5.67699356 62.00737114 5.67699356 62.90034485 6.54550171 C63.82559212 7.46270493 63.82559212 7.46270493 64.76953125 8.3984375 C65.40992844 9.02980621 66.05032562 9.66117493 66.71012878 10.31167603 C68.05840931 11.64547507 69.40391793 12.98208118 70.74682617 14.32128906 C72.81043182 16.37294379 74.89195356 18.40520923 76.97460938 20.4375 C78.28239464 21.7358272 79.58907447 23.03526905 80.89453125 24.3359375 C81.52148392 24.94335785 82.14843658 25.5507782 82.79438782 26.17660522 C84.51489258 27.91552734 84.51489258 27.91552734 87 31 C86.56808564 35.37921598 83.66437506 37.71831476 80.65234375 40.640625 C80.12105362 41.16767029 79.58976349 41.69471558 79.04237366 42.23773193 C77.34767175 43.91567187 75.64282783 45.58286728 73.9375 47.25 C72.78512255 48.38732745 71.63342148 49.52534066 70.48242188 50.6640625 C67.66272816 53.45071992 64.83389412 56.22778792 62 59 C63.60373148 63.00517396 66.42113986 65.6771098 69.4453125 68.640625 C70.24012527 69.43119293 70.24012527 69.43119293 71.05099487 70.23773193 C72.73767825 71.91325675 74.43119564 73.58167722 76.125 75.25 C77.27259388 76.38755851 78.41973461 77.52557436 79.56640625 78.6640625 C82.37238137 81.44803465 85.18450464 84.2256576 88 87 C84.10023279 91.66874537 80.04785356 96.09127809 75.7265625 100.37109375 C75.15795502 100.93828629 74.58934753 101.50547882 74.00350952 102.08985901 C72.21303764 103.87479913 70.41909516 105.65620256 68.625 107.4375 C67.39950677 108.65796939 66.17424428 109.87867053 64.94921875 111.09960938 C61.96880226 114.06908756 58.98527106 117.03540257 56 120 C52.75260449 118.57491971 50.59468519 116.84083976 48.1015625 114.33203125 C47.37453125 113.60306641 46.6475 112.87410156 45.8984375 112.12304688 C45.14820313 111.36056641 44.39796875 110.59808594 43.625 109.8125 C42.8825 109.06935547 42.14 108.32621094 41.375 107.56054688 C37.04318028 103.19428689 32.94048446 98.72232661 29 94 C24.99482604 95.60373148 22.3228902 98.42113986 19.359375 101.4453125 C18.83232971 101.97518768 18.30528442 102.50506287 17.76226807 103.05099487 C16.08674325 104.73767825 14.41832278 106.43119564 12.75 108.125 C11.61244149 109.27259388 10.47442564 110.41973461 9.3359375 111.56640625 C6.55196535 114.37238137 3.7743424 117.18450464 1 120 C-3.66874537 116.10023279 -8.09127809 112.04785356 -12.37109375 107.7265625 C-12.93828629 107.15795502 -13.50547882 106.58934753 -14.08985901 106.00350952 C-15.87479913 104.21303764 -17.65620256 102.41909516 -19.4375 100.625 C-20.65796939 99.39950677 -21.87867053 98.17424428 -23.09960938 96.94921875 C-26.06908756 93.96880226 -29.03540257 90.98527106 -32 88 C-28.05049432 83.25347696 -23.91395107 78.8148637 -19.5 74.5 C-15.10789117 70.16270688 -10.90105138 65.79272027 -7 61 C-8.58431453 57.09148801 -11.26635095 54.47632644 -14.2265625 51.578125 C-14.73424164 51.07327576 -15.24192078 50.56842651 -15.76498413 50.04827881 C-17.38033842 48.44407904 -19.00252209 46.84699144 -20.625 45.25 C-21.72441698 44.16061893 -22.82338059 43.0707801 -23.921875 41.98046875 C-26.6093602 39.31498115 -29.30299021 36.65584857 -32 34 C-30.68623083 31.09456128 -29.27943508 29.03338941 -27.01904297 26.79199219 C-26.41857147 26.19167175 -25.81809998 25.59135132 -25.19943237 24.97283936 C-24.55354156 24.33727112 -23.90765076 23.70170288 -23.2421875 23.046875 C-22.57913605 22.38665344 -21.91608459 21.72643188 -21.23294067 21.04620361 C-19.11828168 18.94272176 -16.99676788 16.84630858 -14.875 14.75 C-13.43834443 13.32337739 -12.00214102 11.89629928 -10.56640625 10.46875 C-7.04949196 6.97386339 -3.52641453 3.48529938 0 0 Z M-6.8125 12.25 C-7.481604 12.87664551 -8.15070801 13.50329102 -8.84008789 14.14892578 C-15.02528438 19.9695104 -21.04494992 25.94514461 -27 32 C-21.89551178 38.18134869 -16.31705058 43.79822878 -10.625 49.4375 C-9.69816406 50.35982422 -8.77132813 51.28214844 -7.81640625 52.23242188 C-5.54654154 54.49058625 -3.27436462 56.74636942 -1 59 C-2.57219198 62.91189274 -5.26110501 65.43800205 -8.26171875 68.28125 C-9.30835857 69.29774906 -10.35457 70.31468938 -11.40039062 71.33203125 C-13.0481425 72.92383104 -14.69947693 74.51140476 -16.35864258 76.09130859 C-17.9624277 77.62276569 -19.55032074 79.1693175 -21.13671875 80.71875 C-21.63870285 81.18865356 -22.14068695 81.65855713 -22.65788269 82.1427002 C-25.25089137 84.6255367 -25.25089137 84.6255367 -26.12939453 87.9753418 C-24.46049805 90.96716163 -22.19525128 93.27254485 -19.79296875 95.67578125 C-19.0102636 96.46990669 -19.0102636 96.46990669 -18.21174622 97.28007507 C-17.10850389 98.39410394 -16.00127965 99.50420164 -14.89038086 100.6105957 C-13.18984107 102.31016027 -11.51175655 104.02994497 -9.83398438 105.75195312 C-8.75911519 106.83202715 -7.68298486 107.91084787 -6.60546875 108.98828125 C-6.10428024 109.50586502 -5.60309174 110.02344879 -5.0867157 110.55671692 C-2.47059666 113.20214661 -2.47059666 113.20214661 0.99780273 114.14746094 C3.98807269 112.43373471 6.26098043 110.10504842 8.640625 107.65234375 C9.43119293 106.85540855 9.43119293 106.85540855 10.23773193 106.04237366 C11.91567187 104.34767175 13.58286728 102.64282783 15.25 100.9375 C16.38732745 99.78512255 17.52534066 98.63342148 18.6640625 97.48242188 C21.45071992 94.66272816 24.22778792 91.83389412 27 89 C30.90851199 90.58431453 33.52367356 93.26635095 36.421875 96.2265625 C36.92672424 96.73424164 37.43157349 97.24192078 37.95172119 97.76498413 C39.55592096 99.38033842 41.15300856 101.00252209 42.75 102.625 C43.83938107 103.72441698 44.9292199 104.82338059 46.01953125 105.921875 C48.68501885 108.6093602 51.34415143 111.30299021 54 114 C58.00517396 112.39626852 60.6771098 109.57886014 63.640625 106.5546875 C64.16767029 106.02481232 64.69471558 105.49493713 65.23773193 104.94900513 C66.91325675 103.26232175 68.58167722 101.56880436 70.25 99.875 C71.38755851 98.72740612 72.52557436 97.58026539 73.6640625 96.43359375 C76.44803465 93.62761863 79.2256576 90.81549536 82 88 C76.89551178 81.81865131 71.31705058 76.20177122 65.625 70.5625 C64.69816406 69.64017578 63.77132812 68.71785156 62.81640625 67.76757812 C60.54654154 65.50941375 58.27436462 63.25363058 56 61 C57.60373148 56.99482604 60.42113986 54.3228902 63.4453125 51.359375 C63.97518768 50.83232971 64.50506287 50.30528442 65.05099487 49.76226807 C66.73767825 48.08674325 68.43119564 46.41832278 70.125 44.75 C71.27259388 43.61244149 72.41973461 42.47442564 73.56640625 41.3359375 C76.37238137 38.55196535 79.18450464 35.7743424 82 33 C76.89551178 26.81865131 71.31705058 21.20177122 65.625 15.5625 C64.69816406 14.64017578 63.77132812 13.71785156 62.81640625 12.76757812 C60.54654154 10.50941375 58.27436462 8.25363058 56 6 C51.99482604 7.60373148 49.3228902 10.42113986 46.359375 13.4453125 C45.83232971 13.97518768 45.30528442 14.50506287 44.76226807 15.05099487 C43.08674325 16.73767825 41.41832278 18.43119564 39.75 20.125 C38.61244149 21.27259388 37.47442564 22.41973461 36.3359375 23.56640625 C33.55196535 26.37238137 30.7743424 29.18450464 28 32 C21.82417738 26.90706135 16.24142248 21.32270211 10.625 15.625 C8.82779281 13.80244433 7.02843835 11.98200262 5.2265625 10.1640625 C4.43846191 9.36436035 3.65036133 8.5646582 2.83837891 7.74072266 C-1.07654654 4.03376137 -3.70866393 9.33083933 -6.8125 12.25 Z " fill="#EEEEE0" transform="translate(388,22)"/>
<path d="M0 0 C6.18134869 5.10448822 11.79822878 10.68294942 17.4375 16.375 C18.35982422 17.30183594 19.28214844 18.22867187 20.23242188 19.18359375 C22.49058625 21.45345846 24.74636942 23.72563538 27 26 C30.94567024 24.18844623 33.11447253 21.89698205 36 18.625 C41.76383186 12.17109697 47.83475179 6.06841185 54 0 C56.82779011 1.29050523 58.9140819 2.65402026 61.13208008 4.82568359 C62.00737114 5.67699356 62.00737114 5.67699356 62.90034485 6.54550171 C63.82559212 7.46270493 63.82559212 7.46270493 64.76953125 8.3984375 C65.40992844 9.02980621 66.05032562 9.66117493 66.71012878 10.31167603 C68.05840931 11.64547507 69.40391793 12.98208118 70.74682617 14.32128906 C72.81043182 16.37294379 74.89195356 18.40520923 76.97460938 20.4375 C78.28239464 21.7358272 79.58907447 23.03526905 80.89453125 24.3359375 C81.52148392 24.94335785 82.14843658 25.5507782 82.79438782 26.17660522 C84.51489258 27.91552734 84.51489258 27.91552734 87 31 C86.56808564 35.37921598 83.66437506 37.71831476 80.65234375 40.640625 C80.12105362 41.16767029 79.58976349 41.69471558 79.04237366 42.23773193 C77.34767175 43.91567187 75.64282783 45.58286728 73.9375 47.25 C72.78512255 48.38732745 71.63342148 49.52534066 70.48242188 50.6640625 C67.66272816 53.45071992 64.83389412 56.22778792 62 59 C63.57219198 62.91189274 66.26110501 65.43800205 69.26171875 68.28125 C70.30835857 69.29774906 71.35457 70.31468938 72.40039062 71.33203125 C74.0481425 72.92383104 75.69947693 74.51140476 77.35864258 76.09130859 C78.9624277 77.62276569 80.55032074 79.1693175 82.13671875 80.71875 C82.63870285 81.18865356 83.14068695 81.65855713 83.65788269 82.1427002 C85.03393555 83.49804688 85.03393555 83.49804688 87 86 C86.6678694 89.28238242 85.43712698 90.9323767 83.13256836 93.20800781 C82.53202133 93.80832825 81.9314743 94.40864868 81.31272888 95.02716064 C80.33615074 95.980513 80.33615074 95.980513 79.33984375 96.953125 C78.67537735 97.61334656 78.01091095 98.27356812 77.3263092 98.95379639 C75.20364437 101.0596764 73.07078395 103.15488328 70.9375 105.25 C69.49606066 106.67639232 68.05529691 108.1034677 66.61523438 109.53125 C63.08461168 113.02880594 59.54480947 116.51682565 56 120 C52.78766257 118.47037883 50.61922836 116.86553735 48.1015625 114.33203125 C47.37453125 113.60306641 46.6475 112.87410156 45.8984375 112.12304688 C45.14820313 111.36056641 44.39796875 110.59808594 43.625 109.8125 C42.8825 109.06935547 42.14 108.32621094 41.375 107.56054688 C37.04318028 103.19428689 32.94048446 98.72232661 29 94 C24.99482604 95.60373148 22.3228902 98.42113986 19.359375 101.4453125 C18.83232971 101.97518768 18.30528442 102.50506287 17.76226807 103.05099487 C16.08674325 104.73767825 14.41832278 106.43119564 12.75 108.125 C11.61244149 109.27259388 10.47442564 110.41973461 9.3359375 111.56640625 C6.55196535 114.37238137 3.7743424 117.18450464 1 120 C-3.66874537 116.10023279 -8.09127809 112.04785356 -12.37109375 107.7265625 C-12.93828629 107.15795502 -13.50547882 106.58934753 -14.08985901 106.00350952 C-15.87479913 104.21303764 -17.65620256 102.41909516 -19.4375 100.625 C-20.65796939 99.39950677 -21.87867053 98.17424428 -23.09960938 96.94921875 C-26.06908756 93.96880226 -29.03540257 90.98527106 -32 88 C-30.41568547 84.09148801 -27.73364905 81.47632644 -24.7734375 78.578125 C-24.01191879 77.82085114 -24.01191879 77.82085114 -23.23501587 77.04827881 C-21.61966158 75.44407904 -19.99747791 73.84699144 -18.375 72.25 C-17.27558302 71.16061893 -16.17661941 70.0707801 -15.078125 68.98046875 C-12.3906398 66.31498115 -9.69700979 63.65584857 -7 61 C-8.85108386 57.02227503 -11.45029955 54.10470325 -14.4375 50.9375 C-14.96375977 50.37329346 -15.49001953 49.80908691 -16.03222656 49.2277832 C-21.2274434 43.69061255 -26.58367048 38.32037093 -32 33 C-28.10023279 28.33125463 -24.04785356 23.90872191 -19.7265625 19.62890625 C-19.15795502 19.06171371 -18.58934753 18.49452118 -18.00350952 17.91014099 C-16.21303764 16.12520087 -14.41909516 14.34379744 -12.625 12.5625 C-11.39950677 11.34203061 -10.17424428 10.12132947 -8.94921875 8.90039062 C-5.96880226 5.93091244 -2.98527106 2.96459743 0 0 Z M-3.72729492 8.38671875 C-4.81941176 9.47931119 -5.90329204 10.5801754 -6.98046875 11.6875 C-7.55332108 12.26459717 -8.1261734 12.84169434 -8.71638489 13.4362793 C-10.54723565 15.28394376 -12.36739185 17.14175807 -14.1875 19 C-15.42574262 20.25328593 -16.66466668 21.50589901 -17.90429688 22.7578125 C-20.94416468 25.83078528 -23.97448016 28.91290242 -27 32 C-21.89551178 38.18134869 -16.31705058 43.79822878 -10.625 49.4375 C-9.69816406 50.35982422 -8.77132813 51.28214844 -7.81640625 52.23242188 C-5.54654154 54.49058625 -3.27436462 56.74636942 -1 59 C-2.57219198 62.91189274 -5.26110501 65.43800205 -8.26171875 68.28125 C-9.30835857 69.29774906 -10.35457 70.31468938 -11.40039062 71.33203125 C-13.0481425 72.92383104 -14.69947693 74.51140476 -16.35864258 76.09130859 C-17.9624277 77.62276569 -19.55032074 79.1693175 -21.13671875 80.71875 C-21.63870285 81.18865356 -22.14068695 81.65855713 -22.65788269 82.1427002 C-25.25872592 84.631228 -25.25872592 84.631228 -26.11791992 87.9934082 C-24.50478224 90.8888829 -22.3217834 93.08571035 -19.9765625 95.38671875 C-19.2235939 96.1404351 -19.2235939 96.1404351 -18.45541382 96.90937805 C-17.39476453 97.9676912 -16.33043114 99.02232325 -15.26269531 100.07348633 C-13.62905363 101.68350499 -12.00916865 103.30645957 -10.390625 104.93164062 C-9.35756108 105.95912848 -8.32373221 106.98584792 -7.2890625 108.01171875 C-6.80458649 108.49710617 -6.32011047 108.98249359 -5.82095337 109.48258972 C-3.53961052 111.71635118 -2.07773231 112.97408923 1 114 C9.58 105.42 18.16 96.84 27 88 C31.22221839 91.61904433 35.17444261 95.05139975 39.05859375 98.9609375 C39.93837891 99.84394531 40.81816406 100.72695313 41.72460938 101.63671875 C43.06749023 102.99216797 43.06749023 102.99216797 44.4375 104.375 C45.35982422 105.30183594 46.28214844 106.22867188 47.23242188 107.18359375 C49.49058625 109.45345846 51.74636942 111.72563538 54 114 C58.00517396 112.39626852 60.6771098 109.57886014 63.640625 106.5546875 C64.16767029 106.02481232 64.69471558 105.49493713 65.23773193 104.94900513 C66.91325675 103.26232175 68.58167722 101.56880436 70.25 99.875 C71.38755851 98.72740612 72.52557436 97.58026539 73.6640625 96.43359375 C76.44803465 93.62761863 79.2256576 90.81549536 82 88 C76.89551178 81.81865131 71.31705058 76.20177122 65.625 70.5625 C64.69816406 69.64017578 63.77132812 68.71785156 62.81640625 67.76757812 C60.54654154 65.50941375 58.27436462 63.25363058 56 61 C57.60373148 56.99482604 60.42113986 54.3228902 63.4453125 51.359375 C63.97518768 50.83232971 64.50506287 50.30528442 65.05099487 49.76226807 C66.73767825 48.08674325 68.43119564 46.41832278 70.125 44.75 C71.27259388 43.61244149 72.41973461 42.47442564 73.56640625 41.3359375 C76.37238137 38.55196535 79.18450464 35.7743424 82 33 C76.89551178 26.81865131 71.31705058 21.20177122 65.625 15.5625 C64.69816406 14.64017578 63.77132812 13.71785156 62.81640625 12.76757812 C60.54654154 10.50941375 58.27436462 8.25363058 56 6 C52.09148801 7.58431453 49.47632644 10.26635095 46.578125 13.2265625 C46.07327576 13.73424164 45.56842651 14.24192078 45.04827881 14.76498413 C43.44407904 16.38033842 41.84699144 18.00252209 40.25 19.625 C39.16061893 20.72441698 38.0707801 21.82338059 36.98046875 22.921875 C34.31498115 25.6093602 31.65584857 28.30299021 29 31 C25.09893499 29.42495428 22.54255722 26.75166774 19.68359375 23.7734375 C18.66222302 22.7316594 17.64073516 21.68999613 16.61914062 20.6484375 C15.0213131 19.00698581 13.42603233 17.36314664 11.83325195 15.71679688 C10.28973766 14.1251441 8.73723918 12.54269302 7.18359375 10.9609375 C6.47099648 10.21570328 6.47099648 10.21570328 5.7440033 9.45541382 C4.55207183 8.24567832 3.28081654 7.11519935 2 6 C-1.22776192 5.67072147 -1.22776192 5.67072147 -3.72729492 8.38671875 Z " fill="#EFEEE1" transform="translate(388,354)"/>
<path d="M0 0 C0.99515625 0.3403125 1.9903125 0.680625 3.015625 1.03125 C19.55996736 7.30961582 31.70050196 19.2676812 39.4765625 34.984375 C46.90153641 51.74484243 47.16840451 69.83574398 41 87 C34.21095248 103.71150158 22.12240337 116.06962931 6 124 C-10.38103464 130.55241386 -28.40567703 131.3407826 -45 125 C-54.21541095 120.96781272 -61.95284889 115.1610189 -69 108 C-69.64582031 107.35289062 -70.29164063 106.70578125 -70.95703125 106.0390625 C-84.43279541 91.65317048 -87.07009397 74.29018835 -86.51171875 55.31640625 C-85.76257928 42.63764525 -80.46079805 32.17069711 -73 22 C-72.55269531 21.36964844 -72.10539063 20.73929687 -71.64453125 20.08984375 C-55.35611956 -0.87969505 -24.62540635 -8.43522206 0 0 Z M-68 22 C-73.94468916 29.64115777 -78.23482398 37.7004497 -81 47 C-81.33 47.99 -81.66 48.98 -82 50 C-83.53763104 71.10266041 -81.19324801 88.06381796 -67.25 104.75 C-56.18113925 116.52266115 -41.03379522 124.47610811 -24.79296875 125.12890625 C-5.08613638 125.44916896 10.44414027 119.20178064 24.8125 105.625 C36.954243 92.98457827 41.5852739 76.98476977 41.2421875 59.86328125 C40.57473261 42.90926628 33.97186815 29.84584849 22 18 C21.40960938 17.37609375 20.81921875 16.7521875 20.2109375 16.109375 C12.12270775 8.19930009 -0.65881829 1.72760719 -12 1 C-12.63631348 0.95907227 -13.27262695 0.91814453 -13.92822266 0.87597656 C-35.05723597 -0.28322118 -53.47231367 5.8795773 -68 22 Z " fill="#EEEEE0" transform="translate(269,351)"/>
<path d="M0 0 C0.98355469 0.32871094 1.96710938 0.65742188 2.98046875 0.99609375 C20.4891159 7.54201746 33.24381872 21.28243918 41 38 C48.17909186 55.10848369 46.21689992 73.87971066 39.46875 90.73046875 C32.43752067 106.38243404 20.21387857 118.12305241 4.26953125 124.5703125 C-13.26546038 131.03738001 -31.29996901 130.89544254 -48.50390625 123.4921875 C-60.61428258 117.34406256 -69.69099511 109.43074966 -77 98 C-77.72316406 96.90751953 -77.72316406 96.90751953 -78.4609375 95.79296875 C-87.23117838 81.46824197 -88.64382882 62.72646636 -85.50634766 46.43701172 C-84.22380143 41.64767909 -82.30747456 37.37907393 -80 33 C-79.22269531 31.50339844 -79.22269531 31.50339844 -78.4296875 29.9765625 C-69.17475162 14.01515134 -53.65757203 2.98205404 -36 -1.75 C-23.94682471 -4.31570515 -11.69032677 -3.99379075 0 0 Z M-68 22 C-81.25563838 37.88671972 -83.61791751 54.95019329 -82 75 C-79.4539292 90.57578098 -69.60441747 104.74937128 -56.9375 113.875 C-42.34035114 123.47127379 -26.40495988 127.33790972 -8.9375 124.3125 C7.94641345 120.29911074 23.00679868 111.00132325 32.26879883 96.03930664 C41.23530553 80.66725339 43.64732221 63.95935076 39.9375 46.5 C36.49610794 35.26345475 30.28399686 26.1967969 22 18 C21.40960938 17.37609375 20.81921875 16.7521875 20.2109375 16.109375 C8.71830099 4.86988027 -6.69145853 0.59076873 -22.32861328 0.63061523 C-40.65593533 1.13198891 -55.38880869 8.73135322 -68 22 Z " fill="#EEEEE0" transform="translate(106,19)"/>
<path d="M0 0 C1.01578125 -0.00322266 2.0315625 -0.00644531 3.078125 -0.00976562 C21.2894094 0.11864728 35.61708542 7.36667692 49 19.3125 C60.61469189 31.23233979 67.35220676 47.28477624 67.375 63.875 C67.31510568 67.02593501 67.18120565 70.16637043 67 73.3125 C66.91105469 74.95605469 66.91105469 74.95605469 66.8203125 76.6328125 C65.51631333 88.30519535 58.79056864 100.62886618 51 109.3125 C50.36835938 110.03566406 49.73671875 110.75882812 49.0859375 111.50390625 C38.41578104 122.96947438 24.21029374 130.57418738 8.47949219 131.45336914 C-13.98644063 132.24272342 -13.98644063 132.24272342 -24 127.3125 C-25.38832031 126.65894531 -25.38832031 126.65894531 -26.8046875 125.9921875 C-43.85212112 117.35041367 -56.03162354 103.48891923 -62 85.3125 C-66.18164095 71.68456221 -66.48064567 53.1587503 -60 40.3125 C-59.50242187 39.24257813 -59.00484375 38.17265625 -58.4921875 37.0703125 C-50.04447319 20.05700879 -35.41322693 7.76921779 -17.4453125 1.69921875 C-11.60263024 -0.00809362 -6.05054971 -0.09597953 0 0 Z M-44 23.3125 C-44.639375 23.92738281 -45.27875 24.54226563 -45.9375 25.17578125 C-56.57089468 36.26014579 -60.35490455 50.17315458 -60.3125 65.125 C-60.32861328 66.24970703 -60.34472656 67.37441406 -60.36132812 68.53320312 C-60.37075058 84.74924139 -54.08534608 98.16496054 -42.78515625 109.62109375 C-29.27642814 122.67511011 -14.44651447 127.72972681 4.09106445 127.68139648 C20.67356708 127.25380716 34.43902705 120.54406821 46.390625 109.1796875 C59.96741274 94.26148061 63.73141166 78.08093176 63 58.3125 C61.96203254 42.24396525 53.2051441 29.09845438 41.875 18.125 C15.9286554 -4.15992664 -20.73117483 0.47603475 -44 23.3125 Z " fill="#EDEDE0" transform="translate(84,347.6875)"/>
<path d="M0 0 C14.0623613 11.00023824 23.11618324 26.0825836 25.81640625 43.828125 C27.60092923 61.82996426 22.8430452 79.38033315 11.81640625 93.828125 C11.26597656 94.56675781 10.71554687 95.30539062 10.1484375 96.06640625 C2.80949741 105.12663293 -8.20062608 112.0263285 -19.18359375 115.828125 C-20.0240625 116.12460937 -20.86453125 116.42109375 -21.73046875 116.7265625 C-39.06432943 121.94587414 -56.27665461 119.12806447 -72.12109375 110.953125 C-89.08651547 100.97197121 -99.70219644 86.76563247 -104.68359375 67.765625 C-107.17403702 57.26558651 -107.44668494 46.184146 -104.18359375 35.828125 C-103.87679688 34.77238281 -103.57 33.71664062 -103.25390625 32.62890625 C-97.50899507 14.6215812 -85.63390802 1.87815463 -69.18359375 -7.171875 C-46.01954125 -18.30175007 -20.7838589 -14.17892705 0 0 Z M-89.05078125 13.890625 C-99.76984431 27.22002984 -103.8008584 43.02799478 -102.18359375 59.828125 C-99.59549374 77.6954189 -91.28284876 91.95027756 -77.24609375 103.203125 C-61.4050441 114.2201513 -44.20444166 116.77578771 -25.4765625 113.5703125 C-14.72790388 111.1477204 -6.56279766 105.82909013 1.81640625 98.828125 C2.48542969 98.27382813 3.15445313 97.71953125 3.84375 97.1484375 C14.82061032 87.14231993 21.05904983 72.17629039 22.2578125 57.52734375 C23.05302 40.09854786 17.88325493 24.79455933 6.44140625 11.515625 C-5.39221717 -0.95657506 -20.02740901 -8.95553057 -37.421875 -9.52368164 C-58.66168603 -9.74768054 -75.01777654 -1.61026723 -89.05078125 13.890625 Z " fill="#EFEFE1" transform="translate(455.18359375,195.171875)"/>
<path d="M0 0 C13.78119976 10.61577012 23.37044601 26.61402093 25.8515625 43.8984375 C27.109443 64.12435731 21.9444165 82.48795324 8.6015625 98.0859375 C-3.60157786 111.12714948 -20.43759101 118.7249605 -38.26757812 119.37329102 C-57.87951445 119.57513249 -73.9803358 112.1011732 -88.265625 98.94921875 C-101.14598984 85.79320408 -106.59927242 66.97426439 -106.421875 49.00390625 C-105.61049257 32.17776267 -97.8356026 16.8586672 -86.1484375 4.8984375 C-60.34093305 -17.72780948 -28.10213807 -18.75800283 0 0 Z M-89.015625 13.9609375 C-100.63944386 28.41542728 -103.6354868 44.80075641 -101.8671875 62.75390625 C-98.93969401 80.00922848 -89.35792697 94.19489349 -75.4609375 104.5234375 C-60.31593771 114.70398872 -43.13769706 116.66953292 -25.44140625 113.640625 C-14.69274763 111.2180329 -6.52764141 105.89940263 1.8515625 98.8984375 C2.52058594 98.34414062 3.18960938 97.78984375 3.87890625 97.21875 C15.34511904 86.76655603 21.0274177 71.66614438 22.08984375 56.49609375 C22.48078375 37.87500443 17.16073727 22.84666133 4.16015625 9.14453125 C-8.66906908 -3.33737157 -23.93094093 -9.65839598 -41.79296875 -9.45092773 C-61.35308276 -8.80577639 -76.19328951 -0.20264647 -89.015625 13.9609375 Z " fill="#EFEFE1" transform="translate(290.1484375,29.1015625)"/>
</svg>
