<?xml version="1.0" encoding="UTF-8"?>
<svg version="1.1" xmlns="http://www.w3.org/2000/svg" width="500" height="500">
<path d="M0 0 C165 0 330 0 500 0 C500 165 500 330 500 500 C335 500 170 500 0 500 C0 335 0 170 0 0 Z " fill="#011C2F" transform="translate(0,0)"/>
<path d="M0 0 C54.12 0 108.24 0 164 0 C164 53.79 164 107.58 164 163 C109.88 163 55.76 163 0 163 C0 109.21 0 55.42 0 0 Z " fill="#001B2E" transform="translate(332,333)"/>
<path d="M0 0 C54.12 0 108.24 0 164 0 C164 53.46 164 106.92 164 162 C109.88 162 55.76 162 0 162 C0 108.54 0 55.08 0 0 Z " fill="#001B2E" transform="translate(332,167)"/>
<path d="M0 0 C52.8 0 105.6 0 160 0 C160 53.79 160 107.58 160 163 C107.2 163 54.4 163 0 163 C0 109.21 0 55.42 0 0 Z " fill="#011C2F" transform="translate(168,333)"/>
<path d="M0 0 C52.8 0 105.6 0 160 0 C160 53.79 160 107.58 160 163 C107.2 163 54.4 163 0 163 C0 109.21 0 55.42 0 0 Z " fill="#001B2E" transform="translate(4,333)"/>
<path d="M0 0 C54.12 0 108.24 0 164 0 C164 52.47 164 104.94 164 159 C109.88 159 55.76 159 0 159 C0 106.53 0 54.06 0 0 Z " fill="#001B2E" transform="translate(332,4)"/>
<path d="M0 0 C52.8 0 105.6 0 160 0 C160 53.46 160 106.92 160 162 C107.2 162 54.4 162 0 162 C0 108.54 0 55.08 0 0 Z " fill="#011C2F" transform="translate(168,167)"/>
<path d="M0 0 C52.8 0 105.6 0 160 0 C160 53.46 160 106.92 160 162 C107.2 162 54.4 162 0 162 C0 108.54 0 55.08 0 0 Z " fill="#001B2E" transform="translate(4,167)"/>
<path d="M0 0 C52.8 0 105.6 0 160 0 C160 52.47 160 104.94 160 159 C107.2 159 54.4 159 0 159 C0 106.53 0 54.06 0 0 Z " fill="#001B2E" transform="translate(4,4)"/>
<path d="M0 0 C165 0 330 0 500 0 C500 165 500 330 500 500 C335 500 170 500 0 500 C0 335 0 170 0 0 Z M4 4 C4 56.47 4 108.94 4 163 C56.8 163 109.6 163 164 163 C164 110.53 164 58.06 164 4 C111.2 4 58.4 4 4 4 Z M168 4 C168 56.47 168 108.94 168 163 C220.8 163 273.6 163 328 163 C328 110.53 328 58.06 328 4 C275.2 4 222.4 4 168 4 Z M332 4 C332 56.47 332 108.94 332 163 C386.12 163 440.24 163 496 163 C496 110.53 496 58.06 496 4 C441.88 4 387.76 4 332 4 Z M4 167 C4 220.46 4 273.92 4 329 C56.8 329 109.6 329 164 329 C164 275.54 164 222.08 164 167 C111.2 167 58.4 167 4 167 Z M168 167 C168 220.46 168 273.92 168 329 C220.8 329 273.6 329 328 329 C328 275.54 328 222.08 328 167 C275.2 167 222.4 167 168 167 Z M332 167 C332 220.46 332 273.92 332 329 C386.12 329 440.24 329 496 329 C496 275.54 496 222.08 496 167 C441.88 167 387.76 167 332 167 Z M4 333 C4 386.79 4 440.58 4 496 C56.8 496 109.6 496 164 496 C164 442.21 164 388.42 164 333 C111.2 333 58.4 333 4 333 Z M168 333 C168 386.79 168 440.58 168 496 C220.8 496 273.6 496 328 496 C328 442.21 328 388.42 328 333 C275.2 333 222.4 333 168 333 Z M332 333 C332 386.79 332 440.58 332 496 C386.12 496 440.24 496 496 496 C496 442.21 496 388.42 496 333 C441.88 333 387.76 333 332 333 Z " fill="#FAF8E9" transform="translate(0,0)"/>
<path d="M0 0 C3.62971585 2.74735398 6.82601068 5.74292195 10 9 C10.70769531 9.67546875 11.41539062 10.3509375 12.14453125 11.046875 C24.14128353 23.25007235 27.40140621 39.16509438 27.44384766 55.72705078 C27.03773046 72.15043035 19.29092142 85.51835356 8 97 C7.0409375 97.97839844 7.0409375 97.97839844 6.0625 98.9765625 C-6.19728958 110.57228015 -22.21370859 114.30782906 -38.57421875 114.15234375 C-42.95286343 113.95762637 -46.8253579 113.3027252 -51 112 C-51.87140625 111.731875 -52.7428125 111.46375 -53.640625 111.1875 C-69.89998223 105.73743612 -81.32126076 95.5991195 -90 81 C-97.07759364 66.64259576 -99.28883113 47.69517386 -94.4375 32.1875 C-93.31640625 29.546875 -93.31640625 29.546875 -92 27 C-91.51402344 26.01515625 -91.02804688 25.0303125 -90.52734375 24.015625 C-82.54133734 9.13862015 -70.44085851 -2.00807254 -54.4375 -7.5 C-52.63638781 -8.03958423 -50.82390301 -8.5433447 -49 -9 C-47.85917969 -9.28617187 -47.85917969 -9.28617187 -46.6953125 -9.578125 C-29.95636226 -12.1981346 -14.39881175 -8.72040712 0 0 Z " fill="#001B2E" transform="translate(283,362)"/>
<path d="M0 0 C3.62971585 2.74735398 6.82601068 5.74292195 10 9 C10.70769531 9.67546875 11.41539062 10.3509375 12.14453125 11.046875 C24.13271371 23.24135506 27.42643258 39.17638584 27.43945312 55.73364258 C27.04229111 70.97473494 20.19271039 84.87889297 9.75 95.8125 C-4.0542996 108.8655452 -19.70549169 114.33166639 -38.57421875 114.15234375 C-42.95286343 113.95762637 -46.8253579 113.3027252 -51 112 C-51.87140625 111.731875 -52.7428125 111.46375 -53.640625 111.1875 C-69.89998223 105.73743612 -81.32126076 95.5991195 -90 81 C-97.07759364 66.64259576 -99.28883113 47.69517386 -94.4375 32.1875 C-93.31640625 29.546875 -93.31640625 29.546875 -92 27 C-91.51402344 26.01515625 -91.02804688 25.0303125 -90.52734375 24.015625 C-82.54133734 9.13862015 -70.44085851 -2.00807254 -54.4375 -7.5 C-52.63638781 -8.03958423 -50.82390301 -8.5433447 -49 -9 C-47.85917969 -9.28617188 -47.85917969 -9.28617188 -46.6953125 -9.578125 C-29.95636226 -12.1981346 -14.39881175 -8.72040712 0 0 Z " fill="#001B2E" transform="translate(283,196)"/>
<path d="M0 0 C3.62971585 2.74735398 6.82601068 5.74292195 10 9 C10.70769531 9.67546875 11.41539062 10.3509375 12.14453125 11.046875 C24.13271371 23.24135506 27.42643258 39.17638584 27.43945312 55.73364258 C27.04229111 70.97473494 20.19271039 84.87889297 9.75 95.8125 C-4.0542996 108.8655452 -19.70549169 114.33166639 -38.57421875 114.15234375 C-42.95286343 113.95762637 -46.8253579 113.3027252 -51 112 C-51.87140625 111.731875 -52.7428125 111.46375 -53.640625 111.1875 C-69.89998223 105.73743612 -81.32126076 95.5991195 -90 81 C-97.07759364 66.64259576 -99.28883113 47.69517386 -94.4375 32.1875 C-93.31640625 29.546875 -93.31640625 29.546875 -92 27 C-91.51402344 26.01515625 -91.02804688 25.0303125 -90.52734375 24.015625 C-82.54133734 9.13862015 -70.44085851 -2.00807254 -54.4375 -7.5 C-52.63638781 -8.03958423 -50.82390301 -8.5433447 -49 -9 C-47.85917969 -9.28617188 -47.85917969 -9.28617188 -46.6953125 -9.578125 C-29.95636226 -12.1981346 -14.39881175 -8.72040712 0 0 Z " fill="#001B2E" transform="translate(283,30)"/>
<path d="M0 0 C0.98355469 0.32871094 1.96710938 0.65742188 2.98046875 0.99609375 C19.73866665 7.26144846 32.41025907 20.24448594 40.17041016 36.16015625 C47.44349502 52.29022322 46.98018774 70.99799979 40.8125 87.375 C34.19961993 103.88797669 22.5970329 116.60922087 6.15087891 123.80957031 C-10.49178137 130.5392004 -28.09754481 131.23349824 -45 125 C-64.37184038 116.5542197 -75.66833452 103.09735938 -83.84716797 84.02441406 C-86.4000461 77.3756928 -86.53850117 70.93897792 -86.5 63.875 C-86.49500488 62.67883057 -86.49000977 61.48266113 -86.48486328 60.25024414 C-86.30126596 50.92033467 -85.11720198 43.40867705 -81 35 C-80.55398437 34.08734375 -80.10796875 33.1746875 -79.6484375 32.234375 C-76.05551792 25.69084548 -71.20140357 20.30920468 -66 15 C-65.40832031 14.37222656 -64.81664062 13.74445312 -64.20703125 13.09765625 C-47.74802833 -2.9253466 -21.31554682 -7.28207478 0 0 Z M-68 22 C-73.94468916 29.64115777 -78.23482398 37.7004497 -81 47 C-81.33 47.99 -81.66 48.98 -82 50 C-83.53763104 71.10266041 -81.19324801 88.06381796 -67.25 104.75 C-56.18113925 116.52266115 -41.03379522 124.47610811 -24.79296875 125.12890625 C-5.14051033 125.44828531 10.20125648 119.19739148 24.6875 105.875 C36.20461538 93.86252482 41.64632425 78.55372457 41.40063477 62.0925293 C40.75602242 44.24515972 34.71240641 30.57859161 22 18 C21.40960938 17.37609375 20.81921875 16.7521875 20.2109375 16.109375 C12.12270775 8.19930009 -0.65881829 1.72760719 -12 1 C-12.63631348 0.95907227 -13.27262695 0.91814453 -13.92822266 0.87597656 C-35.05723597 -0.28322118 -53.47231367 5.8795773 -68 22 Z " fill="#EDEDE0" transform="translate(269,19)"/>
<path d="M0 0 C0.98355469 0.32871094 1.96710938 0.65742188 2.98046875 0.99609375 C19.43145769 7.14659285 31.90667035 19.41140603 39.48046875 35.05859375 C46.78560828 51.87541056 47.37028003 69.74715824 41 87 C33.80501865 105.10476286 20.79989638 117.27819487 3 125 C-12.22595076 130.9034381 -29.74091568 130.97622921 -45 125 C-63.11681916 116.73916024 -75.3396095 104.51333191 -83.2578125 86.0703125 C-88.83402465 70.12156586 -88.32864727 50.22811881 -81 35 C-71.90593161 17.00220418 -58.07796452 5.31219179 -38.890625 -1.02734375 C-26.10311779 -4.47869831 -12.53984115 -4.28401212 0 0 Z M-68 22 C-73.94468916 29.64115777 -78.23482398 37.7004497 -81 47 C-81.33 47.99 -81.66 48.98 -82 50 C-83.53763104 71.10266041 -81.19324801 88.06381796 -67.25 104.75 C-56.18113925 116.52266115 -41.03379522 124.47610811 -24.79296875 125.12890625 C-5.14051033 125.44828531 10.20125648 119.19739148 24.6875 105.875 C36.20461538 93.86252482 41.64632425 78.55372457 41.40063477 62.0925293 C40.75602242 44.24515972 34.71240641 30.57859161 22 18 C21.40960938 17.37609375 20.81921875 16.7521875 20.2109375 16.109375 C12.12270775 8.19930009 -0.65881829 1.72760719 -12 1 C-12.63631348 0.95907227 -13.27262695 0.91814453 -13.92822266 0.87597656 C-35.05723597 -0.28322118 -53.47231367 5.8795773 -68 22 Z " fill="#EEEEE0" transform="translate(269,185)"/>
<path d="M0 0 C0.99515625 0.3403125 1.9903125 0.680625 3.015625 1.03125 C19.55996736 7.30961582 31.70050196 19.2676812 39.4765625 34.984375 C46.90153641 51.74484243 47.16840451 69.83574398 41 87 C34.21095248 103.71150158 22.12240337 116.06962931 6 124 C-10.38103464 130.55241386 -28.40567703 131.3407826 -45 125 C-54.21541095 120.96781272 -61.95284889 115.1610189 -69 108 C-69.64582031 107.35289062 -70.29164063 106.70578125 -70.95703125 106.0390625 C-84.43279541 91.65317048 -87.07009397 74.29018835 -86.51171875 55.31640625 C-85.76257928 42.63764525 -80.46079805 32.17069711 -73 22 C-72.55269531 21.36964844 -72.10539063 20.73929687 -71.64453125 20.08984375 C-55.35611956 -0.87969505 -24.62540635 -8.43522206 0 0 Z M-68 22 C-73.94468916 29.64115777 -78.23482398 37.7004497 -81 47 C-81.33 47.99 -81.66 48.98 -82 50 C-83.53763104 71.10266041 -81.19324801 88.06381796 -67.25 104.75 C-56.18113925 116.52266115 -41.03379522 124.47610811 -24.79296875 125.12890625 C-5.08613638 125.44916896 10.44414027 119.20178064 24.8125 105.625 C36.954243 92.98457827 41.5852739 76.98476977 41.2421875 59.86328125 C40.57473261 42.90926628 33.97186815 29.84584849 22 18 C21.40960938 17.37609375 20.81921875 16.7521875 20.2109375 16.109375 C12.12270775 8.19930009 -0.65881829 1.72760719 -12 1 C-12.63631348 0.95907227 -13.27262695 0.91814453 -13.92822266 0.87597656 C-35.05723597 -0.28322118 -53.47231367 5.8795773 -68 22 Z " fill="#EEEEE0" transform="translate(269,351)"/>
</svg>
