<?xml version="1.0" encoding="UTF-8"?>
<svg version="1.1" xmlns="http://www.w3.org/2000/svg" width="500" height="500">
<path d="M0 0 C165 0 330 0 500 0 C500 165 500 330 500 500 C335 500 170 500 0 500 C0 335 0 170 0 0 Z " fill="#001B2E" transform="translate(0,0)"/>
<path d="M0 0 C56.76 0 113.52 0 172 0 C172 57.42 172 114.84 172 174 C115.24 174 58.48 174 0 174 C0 116.58 0 59.16 0 0 Z " fill="#011C2E" transform="translate(164,163)"/>
<path d="M0 0 C51.48 0 102.96 0 156 0 C156 57.42 156 114.84 156 174 C104.52 174 53.04 174 0 174 C0 116.58 0 59.16 0 0 Z " fill="#011C2E" transform="translate(4,163)"/>
<path d="M0 0 C51.48 0 102.96 0 156 0 C156 57.42 156 114.84 156 174 C104.52 174 53.04 174 0 174 C0 116.58 0 59.16 0 0 Z " fill="#001B2E" transform="translate(340,163)"/>
<path d="M0 0 C56.76 0 113.52 0 172 0 C172 51.15 172 102.3 172 155 C115.24 155 58.48 155 0 155 C0 103.85 0 52.7 0 0 Z " fill="#001B2E" transform="translate(164,341)"/>
<path d="M0 0 C56.76 0 113.52 0 172 0 C172 51.15 172 102.3 172 155 C115.24 155 58.48 155 0 155 C0 103.85 0 52.7 0 0 Z " fill="#011C2F" transform="translate(164,4)"/>
<path d="M0 0 C51.48 0 102.96 0 156 0 C156 51.15 156 102.3 156 155 C104.52 155 53.04 155 0 155 C0 103.85 0 52.7 0 0 Z " fill="#021D2F" transform="translate(340,341)"/>
<path d="M0 0 C51.48 0 102.96 0 156 0 C156 51.15 156 102.3 156 155 C104.52 155 53.04 155 0 155 C0 103.85 0 52.7 0 0 Z " fill="#001B2E" transform="translate(4,341)"/>
<path d="M0 0 C51.48 0 102.96 0 156 0 C156 51.15 156 102.3 156 155 C104.52 155 53.04 155 0 155 C0 103.85 0 52.7 0 0 Z " fill="#001B2E" transform="translate(4,4)"/>
<path d="M0 0 C165 0 330 0 500 0 C500 165 500 330 500 500 C335 500 170 500 0 500 C0 335 0 170 0 0 Z M4 4 C4 55.15 4 106.3 4 159 C55.48 159 106.96 159 160 159 C160 107.85 160 56.7 160 4 C108.52 4 57.04 4 4 4 Z M164 4 C164 55.15 164 106.3 164 159 C220.76 159 277.52 159 336 159 C336 107.85 336 56.7 336 4 C279.24 4 222.48 4 164 4 Z M340 4 C340 55.15 340 106.3 340 159 C391.48 159 442.96 159 496 159 C496 107.85 496 56.7 496 4 C444.52 4 393.04 4 340 4 Z M4 163 C4 220.42 4 277.84 4 337 C55.48 337 106.96 337 160 337 C160 279.58 160 222.16 160 163 C108.52 163 57.04 163 4 163 Z M164 163 C164 220.42 164 277.84 164 337 C220.76 337 277.52 337 336 337 C336 279.58 336 222.16 336 163 C279.24 163 222.48 163 164 163 Z M340 163 C340 220.42 340 277.84 340 337 C391.48 337 442.96 337 496 337 C496 279.58 496 222.16 496 163 C444.52 163 393.04 163 340 163 Z M4 341 C4 392.15 4 443.3 4 496 C55.48 496 106.96 496 160 496 C160 444.85 160 393.7 160 341 C108.52 341 57.04 341 4 341 Z M164 341 C164 392.15 164 443.3 164 496 C220.76 496 277.52 496 336 496 C336 444.85 336 393.7 336 341 C279.24 341 222.48 341 164 341 Z M340 341 C340 392.15 340 443.3 340 496 C391.48 496 442.96 496 496 496 C496 444.85 496 393.7 496 341 C444.52 341 393.04 341 340 341 Z " fill="#FAF8E9" transform="translate(0,0)"/>
<path d="M0 0 C51.48 0 102.96 0 156 0 C156 57.42 156 114.84 156 174 C104.52 174 53.04 174 0 174 C0 116.58 0 59.16 0 0 Z M28.484375 43.89453125 C15.56721642 60.55424405 11.5793674 77.39747421 13.25 98.09765625 C15.70259228 115.44463707 26.2930408 130.53359944 40 141 C55.02904237 151.27766263 72.10476124 155.4733487 90.109375 152.38671875 C108.4509257 148.5818106 123.53227899 139.31737593 134.25 123.82421875 C143.41598306 109.0317952 147.57753 91.24468443 144.3515625 74.0078125 C140.19962607 56.93874052 130.74310803 41.78812406 116 32 C103.64769501 24.92937025 92.8984083 21.47449132 78.625 21.5625 C77.48289062 21.54251953 76.34078125 21.52253906 75.1640625 21.50195312 C57.11815779 21.51220648 40.26842598 30.33555334 28.484375 43.89453125 Z " fill="#001B2E" transform="translate(4,163)"/>
<path d="M0 0 C12.88393109 10.33520425 22.80386766 23.99391641 25.06347656 40.60742188 C26.78086105 60.24849519 23.02645642 76.40924713 10.34082031 91.77929688 C0.86846363 103.04535515 -11.83728089 109.37443047 -26.03417969 112.52929688 C-35.11618144 113.15564182 -43.8848823 113.40551391 -52.65917969 110.77929688 C-53.56925781 110.54597656 -54.47933594 110.31265625 -55.41699219 110.07226562 C-71.6595172 105.428515 -83.4835234 94.21840344 -91.65917969 79.77929688 C-99.54500778 65.04798741 -100.59021123 49.36170246 -96.69433594 33.16210938 C-91.51672219 16.24205841 -79.35620844 2.81083366 -64.01074219 -5.67773438 C-43.45326725 -15.14183997 -18.43722059 -13.56475911 0 0 Z " fill="#011B2E" transform="translate(453.6591796875,368.220703125)"/>
<path d="M0 0 C12.64520159 9.72765956 21.66365591 23.96899201 24.26660156 39.78027344 C26.10192832 58.18821033 22.1303156 75.26467038 10.26660156 89.78027344 C0.61434931 101.12772411 -13.07785867 110.23022788 -28.25683594 111.65136719 C-46.85778019 112.61955514 -62.95753483 110.51115633 -77.60791016 97.76635742 C-90.20758841 86.29045553 -98.55177154 72.0932698 -100.08496094 54.81933594 C-100.74737615 36.48288274 -95.18636853 21.27748855 -83.24902344 7.35058594 C-60.5055489 -15.88731196 -26.52352141 -18.66359338 0 0 Z " fill="#011B2E" transform="translate(287.7333984375,31.2197265625)"/>
<path d="M0 0 C3.90851199 1.58431453 6.52367356 4.26635095 9.421875 7.2265625 C9.92672424 7.73424164 10.43157349 8.24192078 10.95172119 8.76498413 C12.55592096 10.38033842 14.15300856 12.00252209 15.75 13.625 C16.83938107 14.72441698 17.9292199 15.82338059 19.01953125 16.921875 C21.68501885 19.6093602 24.34415143 22.30299021 27 25 C30.91189274 23.42780802 33.43800205 20.73889499 36.28125 17.73828125 C37.29774906 16.69164143 38.31468938 15.64543 39.33203125 14.59960938 C40.92383104 12.9518575 42.51140476 11.30052307 44.09130859 9.64135742 C45.62276569 8.0375723 47.1693175 6.44967926 48.71875 4.86328125 C49.18865356 4.36129715 49.65855713 3.85931305 50.1427002 3.34211731 C51.49804688 1.96606445 51.49804688 1.96606445 54 0 C56.68242959 -0.01375605 57.57773059 0.59921122 59.50219727 2.42578125 C59.99776123 3.04839844 60.4933252 3.67101562 61.00390625 4.3125 C64.07654513 7.98818016 67.32367008 11.43201115 70.71484375 14.8125 C71.47155869 15.56768921 71.47155869 15.56768921 72.24356079 16.33813477 C73.80624872 17.89407355 75.37179644 19.44709642 76.9375 21 C78.01390654 22.07137887 79.09008014 23.14299182 80.16601562 24.21484375 C82.77466745 26.81259638 85.38644471 29.40717962 88 32 C82.89551178 38.18134869 77.31705058 43.79822878 71.625 49.4375 C70.23474609 50.82098633 70.23474609 50.82098633 68.81640625 52.23242188 C66.54654154 54.49058625 64.27436462 56.74636942 62 59 C67.10448822 65.18134869 72.68294942 70.79822878 78.375 76.4375 C79.30183594 77.35982422 80.22867188 78.28214844 81.18359375 79.23242188 C83.45345846 81.49058625 85.72563538 83.74636942 88 86 C86.70949477 88.82779011 85.34597974 90.9140819 83.17431641 93.13208008 C82.32300644 94.00737114 82.32300644 94.00737114 81.45449829 94.90034485 C80.84302948 95.51717636 80.23156067 96.13400787 79.6015625 96.76953125 C78.97019379 97.40992844 78.33882507 98.05032562 77.68832397 98.71012878 C76.35452493 100.05840931 75.01791882 101.40391793 73.67871094 102.74682617 C71.62705621 104.81043182 69.59479077 106.89195356 67.5625 108.97460938 C66.2641728 110.28239464 64.96473095 111.58907447 63.6640625 112.89453125 C63.05664215 113.52148392 62.4492218 114.14843658 61.82339478 114.79438782 C60.08447266 116.51489258 60.08447266 116.51489258 57 119 C52.62078402 118.56808564 50.28168524 115.66437506 47.359375 112.65234375 C46.83232971 112.12105362 46.30528442 111.58976349 45.76226807 111.04237366 C44.08432813 109.34767175 42.41713272 107.64282783 40.75 105.9375 C39.61267255 104.78512255 38.47465934 103.63342148 37.3359375 102.48242188 C34.54928008 99.66272816 31.77221208 96.83389412 29 94 C25.09148801 95.58431453 22.47632644 98.26635095 19.578125 101.2265625 C18.82085114 101.98808121 18.82085114 101.98808121 18.04827881 102.76498413 C16.44407904 104.38033842 14.84699144 106.00252209 13.25 107.625 C12.16061893 108.72441698 11.0707801 109.82338059 9.98046875 110.921875 C7.31498115 113.6093602 4.65584857 116.30299021 2 119 C-0.82779011 117.70949477 -2.9140819 116.34597974 -5.13208008 114.17431641 C-5.71560745 113.60677643 -6.29913483 113.03923645 -6.90034485 112.45449829 C-7.51717636 111.84302948 -8.13400787 111.23156067 -8.76953125 110.6015625 C-9.40992844 109.97019379 -10.05032562 109.33882507 -10.71012878 108.68832397 C-12.05840931 107.35452493 -13.40391793 106.01791882 -14.74682617 104.67871094 C-16.81043182 102.62705621 -18.89195356 100.59479077 -20.97460938 98.5625 C-22.28239464 97.2641728 -23.58907447 95.96473095 -24.89453125 94.6640625 C-25.52148392 94.05664215 -26.14843658 93.4492218 -26.79438782 92.82339478 C-28.51489258 91.08447266 -28.51489258 91.08447266 -31 88 C-30.56808564 83.62078402 -27.66437506 81.28168524 -24.65234375 78.359375 C-24.12105362 77.83232971 -23.58976349 77.30528442 -23.04237366 76.76226807 C-21.34767175 75.08432813 -19.64282783 73.41713272 -17.9375 71.75 C-16.78512255 70.61267255 -15.63342148 69.47465934 -14.48242188 68.3359375 C-11.66272816 65.54928008 -8.83389412 62.77221208 -6 60 C-11.10448822 53.81865131 -16.68294942 48.20177122 -22.375 42.5625 C-23.30183594 41.64017578 -24.22867187 40.71785156 -25.18359375 39.76757812 C-27.45345846 37.50941375 -29.72563538 35.25363058 -32 33 C-28.10023279 28.33125463 -24.04785356 23.90872191 -19.7265625 19.62890625 C-19.15795502 19.06171371 -18.58934753 18.49452118 -18.00350952 17.91014099 C-16.21303764 16.12520087 -14.41909516 14.34379744 -12.625 12.5625 C-11.39950677 11.34203061 -10.17424428 10.12132947 -8.94921875 8.90039062 C-5.96880226 5.93091244 -2.98527106 2.96459743 0 0 Z " fill="#011C2E" transform="translate(389,28)"/>
<path d="M0 0 C6.18134869 5.10448822 11.79822878 10.68294942 17.4375 16.375 C18.35982422 17.30183594 19.28214844 18.22867188 20.23242188 19.18359375 C22.49058625 21.45345846 24.74636942 23.72563538 27 26 C33.18134869 20.89551178 38.79822878 15.31705058 44.4375 9.625 C45.35982422 8.69816406 46.28214844 7.77132812 47.23242188 6.81640625 C49.49058625 4.54654154 51.74636942 2.27436462 54 0 C56.90543872 1.31376917 58.96661059 2.72056492 61.20800781 4.98095703 C61.80832825 5.58142853 62.40864868 6.18190002 63.02716064 6.80056763 C63.66272888 7.44645844 64.29829712 8.09234924 64.953125 8.7578125 C65.61334656 9.42086395 66.27356812 10.08391541 66.95379639 10.76705933 C69.05727824 12.88171832 71.15369142 15.00323212 73.25 17.125 C74.67662261 18.56165557 76.10370072 19.99785898 77.53125 21.43359375 C81.02613661 24.95050804 84.51470062 28.47358547 88 32 C84.48759425 36.1769213 80.9137655 40.20905116 77.0390625 44.05859375 C76.15605469 44.93837891 75.27304687 45.81816406 74.36328125 46.72460938 C73.45964844 47.61986328 72.55601562 48.51511719 71.625 49.4375 C70.23474609 50.82098633 70.23474609 50.82098633 68.81640625 52.23242188 C66.54654154 54.49058625 64.27436462 56.74636942 62 59 C63.58431453 62.90851199 66.26635095 65.52367356 69.2265625 68.421875 C69.98808121 69.17914886 69.98808121 69.17914886 70.76498413 69.95172119 C72.38033842 71.55592096 74.00252209 73.15300856 75.625 74.75 C76.72441698 75.83938107 77.82338059 76.9292199 78.921875 78.01953125 C81.6093602 80.68501885 84.30299021 83.34415143 87 86 C85.70280076 88.85779017 84.3363174 90.91008536 82.11083984 93.11621094 C81.5303891 93.69651062 80.94993835 94.2768103 80.35189819 94.87469482 C79.72788116 95.48838928 79.10386414 96.10208374 78.4609375 96.734375 C77.82008209 97.37240051 77.17922668 98.01042603 76.51895142 98.66778564 C74.47562179 100.69994069 72.42544018 102.72502218 70.375 104.75 C68.9865214 106.1284453 67.5984951 107.50734636 66.2109375 108.88671875 C62.81251303 112.26311894 59.40792746 115.63319288 56 119 C52.09148801 117.41568547 49.47632644 114.73364905 46.578125 111.7734375 C46.07327576 111.26575836 45.56842651 110.75807922 45.04827881 110.23501587 C43.44407904 108.61966158 41.84699144 106.99747791 40.25 105.375 C39.16061893 104.27558302 38.0707801 103.17661941 36.98046875 102.078125 C34.31498115 99.3906398 31.65584857 96.69700979 29 94 C24.99482604 95.60373148 22.3228902 98.42113986 19.359375 101.4453125 C18.83232971 101.97518768 18.30528442 102.50506287 17.76226807 103.05099487 C16.08674325 104.73767825 14.41832278 106.43119564 12.75 108.125 C11.61244149 109.27259388 10.47442564 110.41973461 9.3359375 111.56640625 C6.55196535 114.37238137 3.7743424 117.18450464 1 120 C-3.66874537 116.10023279 -8.09127809 112.04785356 -12.37109375 107.7265625 C-12.93828629 107.15795502 -13.50547882 106.58934753 -14.08985901 106.00350952 C-15.87479913 104.21303764 -17.65620256 102.41909516 -19.4375 100.625 C-20.65796939 99.39950677 -21.87867053 98.17424428 -23.09960938 96.94921875 C-26.06908756 93.96880226 -29.03540257 90.98527106 -32 88 C-30.39626852 83.99482604 -27.57886014 81.3228902 -24.5546875 78.359375 C-24.02481232 77.83232971 -23.49493713 77.30528442 -22.94900513 76.76226807 C-21.26232175 75.08674325 -19.56880436 73.41832278 -17.875 71.75 C-16.72740612 70.61244149 -15.58026539 69.47442564 -14.43359375 68.3359375 C-11.62761863 65.55196535 -8.81549536 62.7743424 -6 60 C-11.10448822 53.81865131 -16.68294942 48.20177122 -22.375 42.5625 C-23.30183594 41.64017578 -24.22867188 40.71785156 -25.18359375 39.76757812 C-27.45345846 37.50941375 -29.72563538 35.25363058 -32 33 C-28.10023279 28.33125463 -24.04785356 23.90872191 -19.7265625 19.62890625 C-19.15795502 19.06171371 -18.58934753 18.49452118 -18.00350952 17.91014099 C-16.21303764 16.12520087 -14.41909516 14.34379744 -12.625 12.5625 C-11.39950677 11.34203061 -10.17424428 10.12132947 -8.94921875 8.90039062 C-5.96880226 5.93091244 -2.98527106 2.96459743 0 0 Z " fill="#011C2F" transform="translate(222,192)"/>
<path d="M0 0 C3.90851199 1.58431453 6.52367356 4.26635095 9.421875 7.2265625 C9.92672424 7.73424164 10.43157349 8.24192078 10.95172119 8.76498413 C12.55592096 10.38033842 14.15300856 12.00252209 15.75 13.625 C16.83938107 14.72441698 17.9292199 15.82338059 19.01953125 16.921875 C21.68501885 19.6093602 24.34415143 22.30299021 27 25 C30.91189274 23.42780802 33.43800205 20.73889499 36.28125 17.73828125 C37.29774906 16.69164143 38.31468938 15.64543 39.33203125 14.59960938 C40.92383104 12.9518575 42.51140476 11.30052307 44.09130859 9.64135742 C45.62276569 8.0375723 47.1693175 6.44967926 48.71875 4.86328125 C49.18865356 4.36129715 49.65855713 3.85931305 50.1427002 3.34211731 C51.49804688 1.96606445 51.49804688 1.96606445 54 0 C56.68242959 -0.01375605 57.57773059 0.59921122 59.50219727 2.42578125 C59.99776123 3.04839844 60.4933252 3.67101562 61.00390625 4.3125 C64.07654513 7.98818016 67.32367008 11.43201115 70.71484375 14.8125 C71.47155869 15.56768921 71.47155869 15.56768921 72.24356079 16.33813477 C73.80624872 17.89407355 75.37179644 19.44709642 76.9375 21 C78.01390654 22.07137887 79.09008014 23.14299182 80.16601562 24.21484375 C82.77466745 26.81259638 85.38644471 29.40717962 88 32 C82.89551178 38.18134869 77.31705058 43.79822878 71.625 49.4375 C70.23474609 50.82098633 70.23474609 50.82098633 68.81640625 52.23242188 C66.54654154 54.49058625 64.27436462 56.74636942 62 59 C67.10448822 65.18134869 72.68294942 70.79822878 78.375 76.4375 C79.30183594 77.35982422 80.22867188 78.28214844 81.18359375 79.23242188 C83.45345846 81.49058625 85.72563538 83.74636942 88 86 C86.70949477 88.82779011 85.34597974 90.9140819 83.17431641 93.13208008 C82.32300644 94.00737114 82.32300644 94.00737114 81.45449829 94.90034485 C80.84302948 95.51717636 80.23156067 96.13400787 79.6015625 96.76953125 C78.97019379 97.40992844 78.33882507 98.05032562 77.68832397 98.71012878 C76.35452493 100.05840931 75.01791882 101.40391793 73.67871094 102.74682617 C71.62705621 104.81043182 69.59479077 106.89195356 67.5625 108.97460938 C66.2641728 110.28239464 64.96473095 111.58907447 63.6640625 112.89453125 C63.05664215 113.52148392 62.4492218 114.14843658 61.82339478 114.79438782 C60.08447266 116.51489258 60.08447266 116.51489258 57 119 C52.62078402 118.56808564 50.28168524 115.66437506 47.359375 112.65234375 C46.83232971 112.12105362 46.30528442 111.58976349 45.76226807 111.04237366 C44.08432813 109.34767175 42.41713272 107.64282783 40.75 105.9375 C39.61267255 104.78512255 38.47465934 103.63342148 37.3359375 102.48242188 C34.54928008 99.66272816 31.77221208 96.83389412 29 94 C25.09148801 95.58431453 22.47632644 98.26635095 19.578125 101.2265625 C18.82085114 101.98808121 18.82085114 101.98808121 18.04827881 102.76498413 C16.44407904 104.38033842 14.84699144 106.00252209 13.25 107.625 C12.16061893 108.72441698 11.0707801 109.82338059 9.98046875 110.921875 C7.31498115 113.6093602 4.65584857 116.30299021 2 119 C-0.82779011 117.70949477 -2.9140819 116.34597974 -5.13208008 114.17431641 C-5.71560745 113.60677643 -6.29913483 113.03923645 -6.90034485 112.45449829 C-7.51717636 111.84302948 -8.13400787 111.23156067 -8.76953125 110.6015625 C-9.40992844 109.97019379 -10.05032562 109.33882507 -10.71012878 108.68832397 C-12.05840931 107.35452493 -13.40391793 106.01791882 -14.74682617 104.67871094 C-16.81043182 102.62705621 -18.89195356 100.59479077 -20.97460938 98.5625 C-22.28239464 97.2641728 -23.58907447 95.96473095 -24.89453125 94.6640625 C-25.52148392 94.05664215 -26.14843658 93.4492218 -26.79438782 92.82339478 C-28.51489258 91.08447266 -28.51489258 91.08447266 -31 88 C-30.56808564 83.62078402 -27.66437506 81.28168524 -24.65234375 78.359375 C-24.12105362 77.83232971 -23.58976349 77.30528442 -23.04237366 76.76226807 C-21.34767175 75.08432813 -19.64282783 73.41713272 -17.9375 71.75 C-16.78512255 70.61267255 -15.63342148 69.47465934 -14.48242188 68.3359375 C-11.66272816 65.54928008 -8.83389412 62.77221208 -6 60 C-11.10448822 53.81865131 -16.68294942 48.20177122 -22.375 42.5625 C-23.30183594 41.64017578 -24.22867187 40.71785156 -25.18359375 39.76757812 C-27.45345846 37.50941375 -29.72563538 35.25363058 -32 33 C-28.10023279 28.33125463 -24.04785356 23.90872191 -19.7265625 19.62890625 C-19.15795502 19.06171371 -18.58934753 18.49452118 -18.00350952 17.91014099 C-16.21303764 16.12520087 -14.41909516 14.34379744 -12.625 12.5625 C-11.39950677 11.34203061 -10.17424428 10.12132947 -8.94921875 8.90039062 C-5.96880226 5.93091244 -2.98527106 2.96459743 0 0 Z M52.49975586 7.38671875 C51.40221675 8.48441713 50.30744784 9.5848894 49.21484375 10.6875 C48.35132042 11.55314575 48.35132042 11.55314575 47.47035217 12.4362793 C45.62371966 14.28853029 43.78058547 16.14422011 41.9375 18 C40.68968122 19.25283139 39.44163733 20.50543861 38.19335938 21.7578125 C35.12628344 24.83594195 32.06234162 27.91716077 29 31 C25.08810726 29.42780802 22.56199795 26.73889499 19.71875 23.73828125 C18.70225094 22.69164143 17.68531062 21.64543 16.66796875 20.59960938 C15.07616896 18.9518575 13.48859524 17.30052307 11.90869141 15.64135742 C10.37723431 14.0375723 8.8306825 12.44967926 7.28125 10.86328125 C6.57639465 10.1103051 6.57639465 10.1103051 5.8572998 9.34211731 C3.37221191 6.75069509 3.37221191 6.75069509 0.02246094 5.86181641 C-2.9885872 7.55634881 -5.25610683 9.88992835 -7.640625 12.34765625 C-8.16767029 12.87894638 -8.69471558 13.41023651 -9.23773193 13.95762634 C-10.91567187 15.65232825 -12.58286728 17.35717217 -14.25 19.0625 C-15.38732745 20.21487745 -16.52534066 21.36657852 -17.6640625 22.51757812 C-20.45071992 25.33727184 -23.22778792 28.16610588 -26 31 C-24.39626852 35.00517396 -21.57886014 37.6771098 -18.5546875 40.640625 C-18.02481232 41.16767029 -17.49493713 41.69471558 -16.94900513 42.23773193 C-15.26232175 43.91325675 -13.56880436 45.58167722 -11.875 47.25 C-10.72740612 48.38755851 -9.58026539 49.52557436 -8.43359375 50.6640625 C-5.62761863 53.44803465 -2.81549536 56.2256576 0 59 C-5.10448822 65.18134869 -10.68294942 70.79822878 -16.375 76.4375 C-17.30183594 77.35982422 -18.22867187 78.28214844 -19.18359375 79.23242188 C-21.45345846 81.49058625 -23.72563538 83.74636942 -26 86 C-24.41291345 89.85978995 -21.80296121 92.53587211 -18.9140625 95.45703125 C-18.41587006 95.96425217 -17.91767761 96.47147308 -17.40438843 96.99406433 C-16.35305388 98.0598617 -15.29892403 99.12290806 -14.2421875 100.18334961 C-12.62503039 101.81246938 -11.02746275 103.45931719 -9.4296875 105.10742188 C-8.40479838 106.14176828 -7.37879397 107.17501104 -6.3515625 108.20703125 C-5.87538483 108.70274124 -5.39920715 109.19845123 -4.90859985 109.70918274 C-2.3804209 112.26200688 -2.3804209 112.26200688 0.98193359 113.13378906 C3.99234802 111.44247953 6.2576823 109.10844781 8.640625 106.65234375 C9.43119293 105.85540855 9.43119293 105.85540855 10.23773193 105.04237366 C11.91567187 103.34767175 13.58286728 101.64282783 15.25 99.9375 C16.38732745 98.78512255 17.52534066 97.63342148 18.6640625 96.48242188 C21.45071992 93.66272816 24.22778792 90.83389412 27 88 C31.00517396 89.60373148 33.6771098 92.42113986 36.640625 95.4453125 C37.16767029 95.97518768 37.69471558 96.50506287 38.23773193 97.05099487 C39.91325675 98.73767825 41.58167722 100.43119564 43.25 102.125 C44.38755851 103.27259388 45.52557436 104.41973461 46.6640625 105.56640625 C49.44803465 108.37238137 52.2256576 111.18450464 55 114 C61.18134869 108.89551178 66.79822878 103.31705058 72.4375 97.625 C73.35982422 96.69816406 74.28214844 95.77132812 75.23242188 94.81640625 C77.49058625 92.54654154 79.74636942 90.27436462 82 88 C80.42780802 84.08810726 77.73889499 81.56199795 74.73828125 78.71875 C73.69164143 77.70225094 72.64543 76.68531062 71.59960938 75.66796875 C69.9518575 74.07616896 68.30052307 72.48859524 66.64135742 70.90869141 C65.0375723 69.37723431 63.44967926 67.8306825 61.86328125 66.28125 C61.36129715 65.81134644 60.85931305 65.34144287 60.34211731 64.8572998 C57.04243381 61.60726835 57.04243381 61.60726835 56.86181641 59.02246094 C58.55634881 56.0114128 60.88992835 53.74389317 63.34765625 51.359375 C63.87894638 50.83232971 64.41023651 50.30528442 64.95762634 49.76226807 C66.65232825 48.08432813 68.35717217 46.41713272 70.0625 44.75 C71.21487745 43.61267255 72.36657852 42.47465934 73.51757812 41.3359375 C76.33727184 38.54928008 79.16610588 35.77221208 82 33 C80.39600374 29.00746337 77.59822732 26.32549792 74.58984375 23.359375 C74.06234024 22.83232971 73.53483673 22.30528442 72.99134827 21.76226807 C71.87998078 20.65391275 70.76619274 19.54797989 69.65014648 18.44433594 C67.93476216 16.74729143 66.22759829 15.04229672 64.52148438 13.3359375 C63.44057649 12.25994197 62.35921217 11.18440473 61.27734375 10.109375 C60.50704079 9.34074127 60.50704079 9.34074127 59.72117615 8.55657959 C56.29165858 4.46531111 56.29165858 4.46531111 52.49975586 7.38671875 Z " fill="#EFEFE1" transform="translate(389,28)"/>
<path d="M0 0 C6.18134869 5.10448822 11.79822878 10.68294942 17.4375 16.375 C18.35982422 17.30183594 19.28214844 18.22867188 20.23242188 19.18359375 C22.49058625 21.45345846 24.74636942 23.72563538 27 26 C33.18134869 20.89551178 38.79822878 15.31705058 44.4375 9.625 C45.35982422 8.69816406 46.28214844 7.77132812 47.23242188 6.81640625 C49.49058625 4.54654154 51.74636942 2.27436462 54 0 C56.90543872 1.31376917 58.96661059 2.72056492 61.20800781 4.98095703 C61.80832825 5.58142853 62.40864868 6.18190002 63.02716064 6.80056763 C63.66272888 7.44645844 64.29829712 8.09234924 64.953125 8.7578125 C65.61334656 9.42086395 66.27356812 10.08391541 66.95379639 10.76705933 C69.05727824 12.88171832 71.15369142 15.00323212 73.25 17.125 C74.67662261 18.56165557 76.10370072 19.99785898 77.53125 21.43359375 C81.02613661 24.95050804 84.51470062 28.47358547 88 32 C84.48759425 36.1769213 80.9137655 40.20905116 77.0390625 44.05859375 C76.15605469 44.93837891 75.27304687 45.81816406 74.36328125 46.72460938 C73.45964844 47.61986328 72.55601562 48.51511719 71.625 49.4375 C70.23474609 50.82098633 70.23474609 50.82098633 68.81640625 52.23242188 C66.54654154 54.49058625 64.27436462 56.74636942 62 59 C63.58431453 62.90851199 66.26635095 65.52367356 69.2265625 68.421875 C69.98808121 69.17914886 69.98808121 69.17914886 70.76498413 69.95172119 C72.38033842 71.55592096 74.00252209 73.15300856 75.625 74.75 C76.72441698 75.83938107 77.82338059 76.9292199 78.921875 78.01953125 C81.6093602 80.68501885 84.30299021 83.34415143 87 86 C85.70280076 88.85779017 84.3363174 90.91008536 82.11083984 93.11621094 C81.5303891 93.69651062 80.94993835 94.2768103 80.35189819 94.87469482 C79.72788116 95.48838928 79.10386414 96.10208374 78.4609375 96.734375 C77.82008209 97.37240051 77.17922668 98.01042603 76.51895142 98.66778564 C74.47562179 100.69994069 72.42544018 102.72502218 70.375 104.75 C68.9865214 106.1284453 67.5984951 107.50734636 66.2109375 108.88671875 C62.81251303 112.26311894 59.40792746 115.63319288 56 119 C52.09148801 117.41568547 49.47632644 114.73364905 46.578125 111.7734375 C46.07327576 111.26575836 45.56842651 110.75807922 45.04827881 110.23501587 C43.44407904 108.61966158 41.84699144 106.99747791 40.25 105.375 C39.16061893 104.27558302 38.0707801 103.17661941 36.98046875 102.078125 C34.31498115 99.3906398 31.65584857 96.69700979 29 94 C24.99482604 95.60373148 22.3228902 98.42113986 19.359375 101.4453125 C18.83232971 101.97518768 18.30528442 102.50506287 17.76226807 103.05099487 C16.08674325 104.73767825 14.41832278 106.43119564 12.75 108.125 C11.61244149 109.27259388 10.47442564 110.41973461 9.3359375 111.56640625 C6.55196535 114.37238137 3.7743424 117.18450464 1 120 C-3.66874537 116.10023279 -8.09127809 112.04785356 -12.37109375 107.7265625 C-12.93828629 107.15795502 -13.50547882 106.58934753 -14.08985901 106.00350952 C-15.87479913 104.21303764 -17.65620256 102.41909516 -19.4375 100.625 C-20.65796939 99.39950677 -21.87867053 98.17424428 -23.09960938 96.94921875 C-26.06908756 93.96880226 -29.03540257 90.98527106 -32 88 C-30.39626852 83.99482604 -27.57886014 81.3228902 -24.5546875 78.359375 C-24.02481232 77.83232971 -23.49493713 77.30528442 -22.94900513 76.76226807 C-21.26232175 75.08674325 -19.56880436 73.41832278 -17.875 71.75 C-16.72740612 70.61244149 -15.58026539 69.47442564 -14.43359375 68.3359375 C-11.62761863 65.55196535 -8.81549536 62.7743424 -6 60 C-11.10448822 53.81865131 -16.68294942 48.20177122 -22.375 42.5625 C-23.30183594 41.64017578 -24.22867188 40.71785156 -25.18359375 39.76757812 C-27.45345846 37.50941375 -29.72563538 35.25363058 -32 33 C-28.10023279 28.33125463 -24.04785356 23.90872191 -19.7265625 19.62890625 C-19.15795502 19.06171371 -18.58934753 18.49452118 -18.00350952 17.91014099 C-16.21303764 16.12520087 -14.41909516 14.34379744 -12.625 12.5625 C-11.39950677 11.34203061 -10.17424428 10.12132947 -8.94921875 8.90039062 C-5.96880226 5.93091244 -2.98527106 2.96459743 0 0 Z M-3.72729492 8.38671875 C-4.81941176 9.47931119 -5.90329204 10.5801754 -6.98046875 11.6875 C-7.55332108 12.26459717 -8.1261734 12.84169434 -8.71638489 13.4362793 C-10.54723565 15.28394376 -12.36739185 17.14175807 -14.1875 19 C-15.42574262 20.25328593 -16.66466668 21.50589901 -17.90429688 22.7578125 C-20.94416468 25.83078528 -23.97448016 28.91290242 -27 32 C-21.89551178 38.18134869 -16.31705058 43.79822878 -10.625 49.4375 C-9.69816406 50.35982422 -8.77132812 51.28214844 -7.81640625 52.23242188 C-5.54654154 54.49058625 -3.27436462 56.74636942 -1 59 C-2.58431453 62.90851199 -5.26635095 65.52367356 -8.2265625 68.421875 C-8.73424164 68.92672424 -9.24192078 69.43157349 -9.76498413 69.95172119 C-11.38033842 71.55592096 -13.00252209 73.15300856 -14.625 74.75 C-15.72441698 75.83938107 -16.82338059 76.9292199 -17.921875 78.01953125 C-20.6093602 80.68501885 -23.30299021 83.34415143 -26 86 C-24.42140174 89.84612073 -21.97344745 92.24153346 -19.02734375 95.1328125 C-18.30267662 95.84967728 -18.30267662 95.84967728 -17.56336975 96.58102417 C-16.02610959 98.10053614 -14.48230674 99.6131639 -12.9375 101.125 C-11.39002523 102.64484559 -9.84404074 104.16613419 -8.30091858 105.69039917 C-6.90429199 107.06918742 -5.50291677 108.44316065 -4.10131836 109.81689453 C-2 112 -2 112 -1 114 C3.00517396 112.39626852 5.6771098 109.57886014 8.640625 106.5546875 C9.16767029 106.02481232 9.69471558 105.49493713 10.23773193 104.94900513 C11.91325675 103.26232175 13.58167722 101.56880436 15.25 99.875 C16.38755851 98.72740612 17.52557436 97.58026539 18.6640625 96.43359375 C21.44803465 93.62761863 24.2256576 90.81549536 27 88 C33.18134869 93.10448822 38.79822878 98.68294942 44.4375 104.375 C45.35982422 105.30183594 46.28214844 106.22867188 47.23242188 107.18359375 C49.49058625 109.45345846 51.74636942 111.72563538 54 114 C58.00517396 112.39626852 60.6771098 109.57886014 63.640625 106.5546875 C64.16767029 106.02481232 64.69471558 105.49493713 65.23773193 104.94900513 C66.91325675 103.26232175 68.58167722 101.56880436 70.25 99.875 C71.38755851 98.72740612 72.52557436 97.58026539 73.6640625 96.43359375 C76.44803465 93.62761863 79.2256576 90.81549536 82 88 C80.39626852 83.99482604 77.57886014 81.3228902 74.5546875 78.359375 C73.75987473 77.56880707 73.75987473 77.56880707 72.94900513 76.76226807 C71.26232175 75.08674325 69.56880436 73.41832278 67.875 71.75 C66.72740612 70.61244149 65.58026539 69.47442564 64.43359375 68.3359375 C61.62761863 65.55196535 58.81549536 62.7743424 56 60 C61.10448822 53.81865131 66.68294942 48.20177122 72.375 42.5625 C73.76525391 41.17901367 73.76525391 41.17901367 75.18359375 39.76757812 C77.45345846 37.50941375 79.72563538 35.25363058 82 33 C76.89551178 26.81865131 71.31705058 21.20177122 65.625 15.5625 C64.69816406 14.64017578 63.77132812 13.71785156 62.81640625 12.76757812 C60.54654154 10.50941375 58.27436462 8.25363058 56 6 C52.09148801 7.58431453 49.47632644 10.26635095 46.578125 13.2265625 C46.07327576 13.73424164 45.56842651 14.24192078 45.04827881 14.76498413 C43.44407904 16.38033842 41.84699144 18.00252209 40.25 19.625 C39.16061893 20.72441698 38.0707801 21.82338059 36.98046875 22.921875 C34.31498115 25.6093602 31.65584857 28.30299021 29 31 C25.09893499 29.42495428 22.54255722 26.75166774 19.68359375 23.7734375 C18.66222302 22.7316594 17.64073516 21.68999613 16.61914062 20.6484375 C15.0213131 19.00698581 13.42603233 17.36314664 11.83325195 15.71679688 C10.28973766 14.1251441 8.73723918 12.54269302 7.18359375 10.9609375 C6.47099648 10.21570328 6.47099648 10.21570328 5.7440033 9.45541382 C4.55207183 8.24567832 3.28081654 7.11519935 2 6 C-1.22776192 5.67072147 -1.22776192 5.67072147 -3.72729492 8.38671875 Z " fill="#F2F2E3" transform="translate(222,192)"/>
<path d="M0 0 C0.76183594 0.59683594 1.52367187 1.19367188 2.30859375 1.80859375 C3.01886719 2.35386719 3.72914063 2.89914062 4.4609375 3.4609375 C16.488222 13.27206209 24.29238794 28.53583477 26.30859375 43.80859375 C27.83315324 62.597882 23.56651529 80.03293567 11.76171875 94.984375 C0.77286845 107.63555138 -14.57150648 117.64240677 -31.69506836 118.96313477 C-43.98842659 119.59942613 -54.27793324 118.41763403 -65.69140625 113.80859375 C-67.05458984 113.28458984 -67.05458984 113.28458984 -68.4453125 112.75 C-85.10099161 105.45144399 -95.99886817 90.52434742 -102.5390625 74.07421875 C-108.09243194 58.33653451 -106.97840027 40.93298111 -100.17749023 25.74145508 C-96.01662221 17.05812837 -90.58890301 10.45451008 -83.69140625 3.80859375 C-82.85222656 2.92300781 -82.85222656 2.92300781 -81.99609375 2.01953125 C-60.09077146 -19.42704084 -23.28791175 -17.32620634 0 0 Z M-87.69140625 12.80859375 C-98.85336939 26.92519419 -102.89708087 41.94089117 -101.69140625 59.80859375 C-99.54439311 77.32481976 -90.33568279 92.15741105 -76.8125 103.1484375 C-62.08518679 113.6791528 -44.83136618 116.85020354 -27.06640625 114.12109375 C-10.56116201 110.61191426 3.60269252 100.55968913 12.99609375 86.62109375 C17.92267755 78.50406782 22.07031139 69.42498912 22.30859375 59.80859375 C22.34726562 58.76058594 22.3859375 57.71257812 22.42578125 56.6328125 C22.78420354 38.41301274 18.35932395 23.16442107 5.58813477 9.83959961 C-7.73884996 -3.35486924 -22.3874435 -9.61375721 -41.01879883 -9.56005859 C-59.67004257 -9.05624768 -75.2315156 -0.99855649 -87.69140625 12.80859375 Z " fill="#EEEEE0" transform="translate(456.69140625,366.19140625)"/>
<path d="M0 0 C0.91910156 0.40089844 1.83820313 0.80179688 2.78515625 1.21484375 C10.75962038 5.08430947 16.78584196 10.81329774 23 17 C23.59683594 17.56203125 24.19367188 18.1240625 24.80859375 18.703125 C36.04359128 30.27304116 40.54734241 47.64589574 40.49047852 63.23535156 C39.92721599 81.58161672 32.08854902 97.23489123 19 110 C5.51568754 122.60636891 -11.03578226 127.5752936 -29.24780273 127.41748047 C-46.87195646 126.82132252 -62.00274691 119.11627905 -74.375 106.85546875 C-78.30280014 102.58281711 -81.28231417 98.11478674 -84 93 C-84.47050781 92.11570312 -84.94101563 91.23140625 -85.42578125 90.3203125 C-93.20353822 74.48947974 -94.38979979 56.80670677 -89 40 C-81.7732805 20.97810747 -68.4907107 8.42907095 -50.4296875 -0.51953125 C-35.90156794 -6.79078104 -14.44946334 -6.84900268 0 0 Z M-73.515625 20.89453125 C-84.75482162 35.39011762 -90.27735231 51.46750848 -88 70 C-84.45730494 89.17048298 -74.0185684 103.89114761 -58 115 C-43.91379949 123.80961075 -26.21436538 125.07446083 -10.1328125 121.94140625 C1.21810412 118.53046996 10.82117645 112.5588804 19 104 C19.94746094 103.08154297 19.94746094 103.08154297 20.9140625 102.14453125 C32.40938072 90.26941177 36.31715512 74.23223313 36.38500977 58.19702148 C36.07663913 41.70335972 28.50814768 28.15075773 17.37109375 16.28125 C4.14886636 3.56002958 -12.04959647 -1.60590087 -30.09375 -1.3125 C-47.11881754 0.0495054 -62.33646662 8.03155553 -73.515625 20.89453125 Z " fill="#EFEFE1" transform="translate(276,20)"/>
<path d="M0 0 C1.17240234 -0.01611328 2.34480469 -0.03222656 3.55273438 -0.04882812 C20.17762166 -0.05811059 35.66005997 6.81073479 47.6875 18.3125 C60.42794175 31.40684291 67.21180934 48.90139447 67.04174805 67.02392578 C66.45499057 85.49745621 57.8008511 102.52756914 44.6875 115.3125 C29.97540872 127.65248737 11.70283137 132.74095553 -7.25927734 131.52392578 C-24.65036782 129.73311908 -40.29618131 119.90255312 -51.43359375 106.78515625 C-62.98671245 91.58115597 -67.15026224 74.15247701 -65.3125 55.3125 C-61.87647659 36.821109 -51.94023919 21.46107113 -36.7265625 10.54296875 C-24.97100199 2.57636262 -13.91656366 -0.03787851 0 0 Z M-46.3125 24.3125 C-58.69023804 39.85300391 -62.88180877 55.63729124 -61.3125 75.3125 C-59.28529409 89.34375374 -52.12506098 100.44909673 -42.3125 110.3125 C-41.72082031 110.93898438 -41.12914063 111.56546875 -40.51953125 112.2109375 C-29.24358148 123.21307834 -14.50576697 127.23236494 0.8125 127.5625 C17.6895099 127.26608709 32.5470113 121.29918354 44.875 109.6875 C57.68221534 96.24908645 63.09160237 80.6300109 62.89453125 62.3203125 C62.24993424 45.90879358 55.07555698 31.96621927 43.6875 20.3125 C30.10592884 8.38449906 14.71467886 2.50580127 -3.41796875 2.97265625 C-20.45491313 4.45933043 -34.6102175 11.63826713 -46.3125 24.3125 Z " fill="#EEEEE0" transform="translate(82.3125,184.6875)"/>
</svg>
