<?xml version="1.0" encoding="UTF-8"?>
<svg version="1.1" xmlns="http://www.w3.org/2000/svg" width="500" height="500">
<path d="M0 0 C165 0 330 0 500 0 C500 165 500 330 500 500 C335 500 170 500 0 500 C0 335 0 170 0 0 Z " fill="#011C2F" transform="translate(0,0)"/>
<path d="M0 0 C54.12 0 108.24 0 164 0 C164 53.46 164 106.92 164 162 C109.88 162 55.76 162 0 162 C0 108.54 0 55.08 0 0 Z " fill="#001B2E" transform="translate(332,167)"/>
<path d="M0 0 C52.8 0 105.6 0 160 0 C160 53.79 160 107.58 160 163 C107.2 163 54.4 163 0 163 C0 109.21 0 55.42 0 0 Z " fill="#001B2E" transform="translate(168,333)"/>
<path d="M0 0 C52.8 0 105.6 0 160 0 C160 53.79 160 107.58 160 163 C107.2 163 54.4 163 0 163 C0 109.21 0 55.42 0 0 Z " fill="#001B2E" transform="translate(4,333)"/>
<path d="M0 0 C54.12 0 108.24 0 164 0 C164 52.47 164 104.94 164 159 C109.88 159 55.76 159 0 159 C0 106.53 0 54.06 0 0 Z " fill="#001B2E" transform="translate(332,4)"/>
<path d="M0 0 C52.8 0 105.6 0 160 0 C160 53.46 160 106.92 160 162 C107.2 162 54.4 162 0 162 C0 108.54 0 55.08 0 0 Z " fill="#011C2F" transform="translate(168,167)"/>
<path d="M0 0 C52.8 0 105.6 0 160 0 C160 53.46 160 106.92 160 162 C107.2 162 54.4 162 0 162 C0 108.54 0 55.08 0 0 Z " fill="#001B2E" transform="translate(4,167)"/>
<path d="M0 0 C52.8 0 105.6 0 160 0 C160 52.47 160 104.94 160 159 C107.2 159 54.4 159 0 159 C0 106.53 0 54.06 0 0 Z " fill="#001B2E" transform="translate(168,4)"/>
<path d="M0 0 C165 0 330 0 500 0 C500 165 500 330 500 500 C335 500 170 500 0 500 C0 335 0 170 0 0 Z M4 4 C4 56.47 4 108.94 4 163 C56.8 163 109.6 163 164 163 C164 110.53 164 58.06 164 4 C111.2 4 58.4 4 4 4 Z M168 4 C168 56.47 168 108.94 168 163 C220.8 163 273.6 163 328 163 C328 110.53 328 58.06 328 4 C275.2 4 222.4 4 168 4 Z M332 4 C332 56.47 332 108.94 332 163 C386.12 163 440.24 163 496 163 C496 110.53 496 58.06 496 4 C441.88 4 387.76 4 332 4 Z M4 167 C4 220.46 4 273.92 4 329 C56.8 329 109.6 329 164 329 C164 275.54 164 222.08 164 167 C111.2 167 58.4 167 4 167 Z M168 167 C168 220.46 168 273.92 168 329 C220.8 329 273.6 329 328 329 C328 275.54 328 222.08 328 167 C275.2 167 222.4 167 168 167 Z M332 167 C332 220.46 332 273.92 332 329 C386.12 329 440.24 329 496 329 C496 275.54 496 222.08 496 167 C441.88 167 387.76 167 332 167 Z M4 333 C4 386.79 4 440.58 4 496 C56.8 496 109.6 496 164 496 C164 442.21 164 388.42 164 333 C111.2 333 58.4 333 4 333 Z M168 333 C168 386.79 168 440.58 168 496 C220.8 496 273.6 496 328 496 C328 442.21 328 388.42 328 333 C275.2 333 222.4 333 168 333 Z M332 333 C332 386.79 332 440.58 332 496 C386.12 496 440.24 496 496 496 C496 442.21 496 388.42 496 333 C441.88 333 387.76 333 332 333 Z " fill="#FAF8E9" transform="translate(0,0)"/>
<path d="M0 0 C18.10856647 -0.87313293 32.63674322 4.89469261 46.39453125 16.58984375 C57.98106452 27.44188997 65.04430368 42.02724901 66.46484375 57.84375 C66.99526512 74.79955327 61.51035915 91.35186988 50.33203125 104.21484375 C37.65302665 117.25774728 21.51586914 124.41756453 3.26953125 124.71484375 C-13.82112856 124.58129087 -28.01370026 117.88461033 -40.125 106.0703125 C-53.16378822 92.73306847 -58.14293596 77.61114861 -58.09985352 59.1887207 C-57.83835951 42.36252116 -50.71765271 29.01466261 -38.85546875 17.27734375 C-38.26507813 16.6534375 -37.6746875 16.02953125 -37.06640625 15.38671875 C-27.06753666 5.60808857 -13.63060923 0.98052002 0 0 Z " fill="#011B2E" transform="translate(410.85546875,351.72265625)"/>
<path d="M0 0 C12.88393109 10.33520425 22.80386766 23.99391641 25.06347656 40.60742188 C26.78086105 60.24849519 23.02645642 76.40924713 10.34082031 91.77929688 C0.86846363 103.04535515 -11.83728089 109.37443047 -26.03417969 112.52929688 C-35.11618144 113.15564182 -43.8848823 113.40551391 -52.65917969 110.77929688 C-53.56925781 110.54597656 -54.47933594 110.31265625 -55.41699219 110.07226562 C-71.6882549 105.42029887 -83.43792068 94.2126294 -91.65917969 79.77929688 C-98.60826191 66.99120946 -101.12514242 51.15165711 -97.34667969 36.98242188 C-97.11980469 36.25539062 -96.89292969 35.52835938 -96.65917969 34.77929688 C-96.39105469 33.90789062 -96.12292969 33.03648438 -95.84667969 32.13867188 C-90.31071124 15.62303266 -79.60326037 3.49964944 -64.65917969 -5.22070312 C-61.05832001 -6.89762062 -57.48028394 -8.15008413 -53.65917969 -9.22070312 C-52.97082031 -9.44371094 -52.28246094 -9.66671875 -51.57324219 -9.89648438 C-34.33337111 -14.7513906 -14.26433733 -10.49465666 0 0 Z " fill="#011B2E" transform="translate(121.6591796875,31.220703125)"/>
<path d="M0 0 C3.62971585 2.74735398 6.82601068 5.74292195 10 9 C10.70769531 9.67546875 11.41539062 10.3509375 12.14453125 11.046875 C24.13271371 23.24135506 27.42643258 39.17638584 27.43945312 55.73364258 C27.04229111 70.97473494 20.19271039 84.87889297 9.75 95.8125 C-4.0542996 108.8655452 -19.70549169 114.33166639 -38.57421875 114.15234375 C-42.95286343 113.95762637 -46.8253579 113.3027252 -51 112 C-51.87140625 111.731875 -52.7428125 111.46375 -53.640625 111.1875 C-69.89998223 105.73743612 -81.32126076 95.5991195 -90 81 C-97.07759364 66.64259576 -99.28883113 47.69517386 -94.4375 32.1875 C-93.31640625 29.546875 -93.31640625 29.546875 -92 27 C-91.51402344 26.01515625 -91.02804688 25.0303125 -90.52734375 24.015625 C-82.54133734 9.13862015 -70.44085851 -2.00807254 -54.4375 -7.5 C-52.63638781 -8.03958423 -50.82390301 -8.5433447 -49 -9 C-47.85917969 -9.28617188 -47.85917969 -9.28617188 -46.6953125 -9.578125 C-29.95636226 -12.1981346 -14.39881175 -8.72040712 0 0 Z " fill="#001B2E" transform="translate(283,196)"/>
<path d="M0 0 C0.98355469 0.32871094 1.96710938 0.65742188 2.98046875 0.99609375 C19.43145769 7.14659285 31.90667035 19.41140603 39.48046875 35.05859375 C46.78560828 51.87541056 47.37028003 69.74715824 41 87 C33.80501865 105.10476286 20.79989638 117.27819487 3 125 C-12.22595076 130.9034381 -29.74091568 130.97622921 -45 125 C-63.11681916 116.73916024 -75.3396095 104.51333191 -83.2578125 86.0703125 C-88.83402465 70.12156586 -88.32864727 50.22811881 -81 35 C-71.90593161 17.00220418 -58.07796452 5.31219179 -38.890625 -1.02734375 C-26.10311779 -4.47869831 -12.53984115 -4.28401212 0 0 Z M-68 22 C-73.94468916 29.64115777 -78.23482398 37.7004497 -81 47 C-81.33 47.99 -81.66 48.98 -82 50 C-83.53763104 71.10266041 -81.19324801 88.06381796 -67.25 104.75 C-56.18113925 116.52266115 -41.03379522 124.47610811 -24.79296875 125.12890625 C-5.14051033 125.44828531 10.20125648 119.19739148 24.6875 105.875 C36.20461538 93.86252482 41.64632425 78.55372457 41.40063477 62.0925293 C40.75602242 44.24515972 34.71240641 30.57859161 22 18 C21.40960938 17.37609375 20.81921875 16.7521875 20.2109375 16.109375 C12.12270775 8.19930009 -0.65881829 1.72760719 -12 1 C-12.63631348 0.95907227 -13.27262695 0.91814453 -13.92822266 0.87597656 C-35.05723597 -0.28322118 -53.47231367 5.8795773 -68 22 Z " fill="#EEEEE0" transform="translate(269,185)"/>
<path d="M0 0 C0.94617188 0.31710938 1.89234375 0.63421875 2.8671875 0.9609375 C19.59253435 7.08632427 32.21241539 20.2074109 40 36 C42.64609916 42.47091521 44.70532355 48.97687803 45 56 C45.0515625 57.02609375 45.103125 58.0521875 45.15625 59.109375 C45.63989853 77.24619487 40.49811962 92.98388131 29 107 C28.47921875 107.63550781 27.9584375 108.27101563 27.421875 108.92578125 C16.54932903 120.86910827 -0.20459485 128.41011181 -16.1796875 129.2734375 C-35.46448769 129.86118823 -51.52032232 124.18126842 -66.359375 111.546875 C-73.91385942 104.26059713 -79.33491246 95.80477799 -83 86 C-83.25821533 85.38987061 -83.51643066 84.77974121 -83.7824707 84.15112305 C-86.47011701 77.22830108 -86.48074975 70.54389004 -86.4375 63.1875 C-86.45748047 61.99318359 -86.47746094 60.79886719 -86.49804688 59.56835938 C-86.48827532 41.61801681 -78.45082267 27.51635332 -66 15 C-65.40960938 14.37480469 -64.81921875 13.74960937 -64.2109375 13.10546875 C-48.08204659 -2.63263405 -20.90909396 -8.06212714 0 0 Z M-69 23 C-79.72572126 37.03040295 -84.23479118 52.46596522 -83 70 C-80.48449266 87.64312883 -71.85005732 102.14941124 -58.1171875 113.3515625 C-43.36509172 123.85505469 -26.15251559 127.04353863 -8.375 124.3125 C8.13024424 120.80332051 22.29409877 110.75109538 31.6875 96.8125 C36.6140838 88.69547407 40.76171764 79.61639537 41 70 C41.03867188 68.95199219 41.07734375 67.90398437 41.1171875 66.82421875 C41.47560979 48.60441899 37.0507302 33.35582732 24.27954102 20.03100586 C10.95255629 6.83653701 -3.69603725 0.57764904 -22.32739258 0.63134766 C-41.1621944 1.14011687 -56.29953009 9.36215822 -69 23 Z " fill="#EFEEE1" transform="translate(106,19)"/>
<path d="M0 0 C8.81251099 7.64443148 15.11266221 16.91156532 19.1875 27.8125 C19.44499023 28.43713135 19.70248047 29.0617627 19.96777344 29.70532227 C22.46203876 36.24720781 22.7271758 42.42054486 22.6875 49.375 C22.68250488 50.52162109 22.67750977 51.66824219 22.67236328 52.84960938 C22.28973046 71.58542321 15.23261926 85.52039914 2.1875 98.8125 C1.57261719 99.451875 0.95773437 100.09125 0.32421875 100.75 C-11.85886125 112.43740865 -29.40726124 117.46027374 -45.91357422 117.21289062 C-64.77097287 116.52758238 -80.76923762 107.67262187 -93.5625 94 C-106.39921884 78.4235498 -110.58894618 59.58766459 -108.8125 39.8125 C-105.85407376 22.39821324 -95.5158395 6.88776151 -81.3828125 -3.52734375 C-55.2516029 -20.40540466 -24.91726891 -19.15645186 0 0 Z M-87.8125 7.8125 C-88.43640625 8.40289062 -89.0603125 8.99328125 -89.703125 9.6015625 C-101.06989071 21.22433645 -105.15591194 36.417814 -105.0456543 52.15429688 C-104.66458983 70.22013132 -97.26613826 85.21433064 -84.26171875 97.7109375 C-77.29706869 103.68698492 -69.51713695 107.96344942 -60.8125 110.8125 C-59.7915625 111.15087891 -59.7915625 111.15087891 -58.75 111.49609375 C-42.35742583 115.99784234 -25.20207023 112.02214727 -10.62109375 104.11328125 C3.24871016 96.07647544 12.36255056 82.84035304 17.16015625 67.75390625 C21.72863547 50.39368521 19.27127746 33.46444094 10.28125 17.94140625 C0.19869333 2.87400346 -13.7820799 -7.14875909 -31.62597656 -10.82861328 C-53.0476067 -14.34466914 -72.61896412 -7.54266924 -87.8125 7.8125 Z " fill="#EFEFE1" transform="translate(457.8125,363.1875)"/>
</svg>
